<svg xmlns="http://www.w3.org/2000/svg" xmlns:xlink="http://www.w3.org/1999/xlink" viewBox="0 0 11380.4 9587.41">
  <defs>
    <linearGradient id="linear-gradient" x1="9464.37" y1="1856" x2="9464.37" y2="132.76" gradientUnits="userSpaceOnUse">
      <stop offset="0" stop-color="#fff"/>
      <stop offset="0.03" stop-color="#e9f5ff"/>
      <stop offset="0.07" stop-color="#d3ecff"/>
      <stop offset="0.12" stop-color="#c2e4ff"/>
      <stop offset="0.18" stop-color="#b6dfff"/>
      <stop offset="0.26" stop-color="#afdcff"/>
      <stop offset="0.48" stop-color="#addbff"/>
      <stop offset="1" stop-color="#49b5ff"/>
    </linearGradient>
    <clipPath id="clip-path" transform="translate(5154.37 5110.3)">
      <path d="M4262.78,747.6s3.7,14.52,12.15,18.68c0,0-10.12,5.83-21.06,5.83s-13.35.08-17.68-6.75c0,0,12.38-.49,20.58-13.44Z" fill="none"/>
    </clipPath>
  </defs>
  <g style="isolation: isolate">
    <g id="Layer_1" data-name="Layer 1">
      <g>
        <rect y="993.7" width="3624.37" height="1420.75" fill="#87ffff"/>
        <path d="M-5154.37-3374.33c240.66-24.64,172.52,97.14,355.19,97.14s-180.87-142.08,53.09-97.14,655.83,184.12,421,97.14-485.67-211.67-184.12-129,524.81,230.51,421.87,195.72-206.83-25.72,9.67,32.08,451.35,125.94,283.18,39,2.9-42,149.33,42,247.9,110.18,372.58,92.78,181.22,4.35,0,37.69,89.89,47.84,221.81-24.64,276.91-218.91,89.89-124.68,18.85-55.09,224.71-116,427.68-89.89,178.32,10.15-117.43,78.28,197.16-30.45,636.44-243.56,327.65-153.67-172.38,44.94,82-50.74,513.86-158,300.75-68.14,85.54,47.84,120.33,47.84V-3833.9c-230.51,133.38-392.88,124.68-624.84,200.07s771.26-324.74,72.49-124.68-582.8,229.06-356.64,156.57,133.37,23.2-185.57,116-726.32,137.73-508.86,79.74,648-105.83,187-76.84-375.49,18.85-621.95-14.49-275.45-33.35-30.44,39.14,191.37,82.63-108.73,5.8S-4673-3786-4428-3671.52s678.49,246.45,313.15,153.67-746.62-189.92-566.85-160.92,298.65,30.44,89.88-14.5-594.4-147.88-413.18-58,498.72,162.37,288.5,131.93S-5154.37-3702-5154.37-3702Z" transform="translate(5154.37 5110.3)" fill="#61f5ff"/>
        <path d="M-1530-3809.08c-269.65,157.85-571.09,184.29-324.69,100s194.38-80.72-177.57,8.12-1028.67,228-611.15,165.68,681.38-85.53,282.7,0S-2545.12-3451-2882-3459.06s-271.68,18,5.22,22.39-42,53.65-436.37,18.85-403-87-92.78-49.29,113.08-27.55-259.51-68.14-468.27-110.18-198.61,0,71,33.35-188.47,0-791.56-160.92-395.78-92.78,283.08-33.79-10-67.64-377.13-70.09-503.25-113.58,326.19,184.12,121.77,137.73-314.59-81-314.59-81v-278.34s291.4,124.5,524.81,172.34,197.16,21.74-52.19-47.84-327.65-124.68,85.53-7.25,845.21,188.46,562.5,113.08-350.83-97.14,29-10.15,424.78,69.59,606,60.89,163.83,37.69-166.72,39.14-118.88,36.25,249.36,31.9,371.14,10.14,495.81-13.05,65.24-37.69-200.06-26.1,50.74-42,390-56.54,620.49-37.69,230.51,34.8,123.23,14.49,279.8-39.15,301.55-137.72-73.93-75.38-194.27-5.8,156.57-56.54,405.93-36.25,237.76,13,205.86-37.32,269.65-76.65Z" transform="translate(5154.37 5110.3)" fill="#46ebff"/>
        <path d="M-5154.37-4116.6v168.17s465.37,121.78,649.49,139.18-18.85-20.3-168.17-71-112.61-31.48,204.41,39.14,729.22,159.48,448,81.19S-4515-3913.63-4212-3833.9s358.08,104.39,646.58,116,227.33,48.78-53.05,33.09,198,90.14,406.79,48.1,520.46-87,155.12-78.29-264.55-15.89,168.55-41.29,278-76.14-33.72-45.69,147.88-65.24,539.31-69.59,249.35-7.25-11.6,42,229.83,29.81,426.61-19.16,351.5-110.67,27.68-75.47,409.76-85,409.76-85V-4116.6Z" transform="translate(5154.37 5110.3)" fill="#32dfff"/>
      </g>
      <g>
        <circle cx="6010.21" cy="4130.19" r="45.16" fill="#fff300"/>
        <path d="M896.38-1000a27.76,27.76,0,0,1,.26,3.77c0,18.56-18.27,33.6-40.8,33.6s-40.8-15-40.8-33.6a29.47,29.47,0,0,1,.25-3.77,45.09,45.09,0,0,0-4.62,19.92,45.16,45.16,0,0,0,45.17,45.16A45.16,45.16,0,0,0,901-980.11,45,45,0,0,0,896.38-1000Z" transform="translate(5154.37 5110.3)" fill="#ffda00"/>
      </g>
      <g>
        <path d="M2914.58,1329.69c-101.48-28-424-113.61-651.67-230-97.22-49.71-175.22-182.35-214.54-192-131.41-32.32-295,93.16-364.72,93.16-40.34,0-152.45-125.66-303-211-109.72-62.2-261.78-89.75-313.77-97C943.48,675.67,852.3,746,745,742.21S270.35,472.24,181.85,476-153.37,595.82-153.37,595.82v733.87Z" transform="translate(5154.37 5110.3)" fill="#00aab4"/>
        <path d="M2262.91,1099.64c-97.22-49.71-175.22-182.35-214.54-192-78.59-19.33-168.69,17.78-243.34,50.74a77.78,77.78,0,0,0,10,12c32.18,26.61,75.09,45.63,126,36.12,26.81-3.8,51-24.71,48.27-43.73,0-5.7-24.14-11.4-24.14-15.21,8-19,48.28-20.91,75.09-15.21,29.5,7.61,29.5,36.13,53.64,53.24,5.36,3.8,16.09,3.8,21.45,7.6,34.87,30.42,59,60.84,99.23,87.46,13.41,11.41,18.77,28.52,34.86,39.92,40.23,24.72,99.23,20.92,134.09,47.53,85.82,58.94,193.09,78,295,112.18,65.88,20.75,136.19,25.78,200.86,49.43h35.13C2813.1,1301.71,2490.61,1216.08,2262.91,1099.64Z" transform="translate(5154.37 5110.3)" fill="#0dc4b4"/>
        <path d="M18.26,567.3c32.18,11.41,72.41,13.31,101.91,0,59-28.52,118-70.35,187.72-36.12,29.5,13.3,42.91,38,59,60.83,8.05,7.61,18.78,15.21,26.82,17.12,59,19,126.05,30.42,166.27,68.44,32.18,28.52,61.68,58.94,109.95,76,42.91,15.21,93.87,15.21,142.14,7.6,85.82-17.11,168.95-19,252.09-39.92,29.5-7.61,72.4-17.11,99.22-5.71,77.77,30.42,126,85.56,222.59,100.77,8,1.9,18.77,5.7,26.82,11.41,77.77,68.44,134.09,136.88,241.36,182.51,16.09,5.71,37.54,3.81,45.59-5.7a25.3,25.3,0,0,0,5.89-6.88,94.64,94.64,0,0,1-22,3.08c-40.34,0-152.45-125.66-303-211-109.72-62.2-261.78-89.75-313.77-97C943.48,675.67,852.3,746,745,742.21S270.35,472.24,181.85,476c-41.94,1.8-119.41,28.8-189.32,56.7C-8.42,547.23-.55,561.14,18.26,567.3Z" transform="translate(5154.37 5110.3)" fill="#0dc4b4"/>
        <path d="M2293.75,1256.49c-203.81,1.9-75.09-64.64-289.63-68.44s-34.86-34.22,72.41-58.94-77.77-77.95-163.59-91.26,107.27-58.94,33.52-72.56c-62.14-11.48,40.42-46.59,98.31-58.49-121-27-268,76.31-344,92-78.11,29.39-332.21,41-420.71,86.59s-128.73-20.91-244-11.41,249.4-150.19,179.68-135-211.86,51.33-362,41.82S963.59,882,1095,878.15s-88.5-95.06,75.09-79.85-179.68-77.95-64.17-99.18c-15.94-2.9-29.29-5-39.08-6.34-111.8-15.51-197.16,40.81-292,48.68h0c-76.14,15.41-251,87.26-130.36,85.36s-107.27,38-356.68,39.92,115.32-117.87-88.5-146.39S62.51,674.72,247.55,644.3-79.62,612,54.47,572.05c132.89-39.57,186.74-60.46,130.26-96-1,0-2-.05-2.88,0-88.5,3.8-335.22,119.78-335.22,119.78v733.87H2434.72l-.18-.64S2497.57,1254.59,2293.75,1256.49Z" transform="translate(5154.37 5110.3)" fill="#0099a8"/>
        <path d="M2443.74,1305.4c-131.44-30.37-117-51.36-328.33-48-236,3.8-579.26,24.72-388.86,0s311.09-39.92,61.69-32.32-429.09,20.91-295-1.9-99.23-15.21-249.4-9.51-399.59-1.9-276.23-20.91-244-5.7-118-19-115.31-15.21-241.36-15.21-104.59-30.42-16.09-45.63-107.27-51.33-10.72-98.86,190.4-87.46,48.27-53.24-56.32,76.05-281.59,114.08,214.54,19,0,57c-178.74,31.68-424.45,10.58-501.49,2.65v195.08H2434.72l-.18-.64S2443.49,1318.48,2443.74,1305.4Z" transform="translate(5154.37 5110.3)" fill="#0088a6"/>
      </g>
      <g>
        <path d="M820.74,1191.84c232-31.47,353.51-157.35,497.13-160.34s331.41-191.82,580-176.83,325.9,101.9,419.8,95.91,359-215.79,574.45-247.26S3248.36,519,3496.92,519,3983,716.81,3983,716.81v475Z" transform="translate(5154.37 5110.3)" fill="#00aab4"/>
        <path d="M1210.16,1058.47c5.52,4.5,0,13.49,2.76,15,38.66,6,88.38-4.5,116-21,11-4.5-5.52-6-11-10.49,30.38,0,58-4.5,85.61-15,41.43-16.48,80.09-30,124.28-43.46,30.38-9,55.24-19.48,77.33-33,74.57-46.46,163-85.42,273.42-94.41,2.76,27-71.8,36-105,54v6c13.81,3,27.62,4.5,38.67,6,88.23,16.35,141.25-20.07,183.88-56.81-29.52-4.72-62.06-8.44-98.27-10.62-248.56-15-436.36,173.83-580,176.83-104.9,2.19-198,69.93-331,118.56,20.81-5.71,41.75-11.37,63.1-16.66C1116.26,1118.41,1152.16,1081,1210.16,1058.47Z" transform="translate(5154.37 5110.3)" fill="#0dc4b4"/>
        <path d="M2715.34,779.74c41.42-18,77.33-36,116-55.44,16.57-6,35.9-6,49.71,0,22.1,7.49,44.19,30,58,19.48,11.05-9-27.62-16.48-41.43-27-5.52-1.5,8.29-6,13.81-6,116-19.48,207.14-61.44,298.28-103.4,33.14-15,77.33-19.48,99.42-37.46,35.91-27,91.14-42,146.38-34.47-11.05,9-41.43,12-30.38,24,8.28,10.49,35.9,10.49,55.23,12-5.52,12-30.38,21-22.09,34.46,0,3,8.28,6,5.52,10.49,58,0,104.95-22.47,140.85-46.45,16.32-10.33,37.32-17.74,59.71-24.23C3611,529.53,3554.25,519,3496.92,519c-248.56,0-389.41,152.85-604.83,184.32-197.76,28.89-437.39,208-548,241.86,11.94-2.22,23.42-4.94,34.32-8.09C2511,898.13,2593.82,830.69,2715.34,779.74Z" transform="translate(5154.37 5110.3)" fill="#0dc4b4"/>
        <path d="M3480.35,531c80.1-4.5-85.61,22.48-5.52,30s-91.14,49.45,33.14,59.94-44.19,49.45-154.66,71.93,190.56,0,254.09-1.5-105,64.44,8.28,70.43-63.52,54,55.24,61.44-58,73.43-237.52,82.42,55.24-49.45-80.09-39-104.95-50.95-30.38-65.94-179.52-22.47-270.66-51-138.08-15-80.09-4.49-80.09,53.94,60.76,45-121.52,52.45-22.09,56.95-60.76,43.45,16.57,42-2.76,73.42-129.81,92.91,16.58-28.48-82.85-1.5-284.46,42-386.65,45S2441.92,985,2337,991s35.9-33,99.42-48-63.52,9-118.75,7.5c-93.9,6-171.23-80.92-419.8-95.91-14.73-.89-29.23-1-43.54-.58,120.33-1.87,18.55,42.56-50.36,54.53S1942,931.1,1997.27,928.1s-82.85,30-24.86,27,0,21-69,36-149.14,45-27.62,39,49.71,16.48-85.62,40.46-370.08,33-265.13,4.49-187.8-10.49-105-36-35.9-4.5-92-8h-.21c-3.36.26-6.7.46-10,.53-24.93.52-49.18,4.74-73.47,11.53-3.91,9-60.58,36.34-1.1,25.93,85.61-15-44.19,42,16.57,39s-66.28,33-8.29,34.47c37.35,1-53.58,26.78-186.48,49.45H3983v-475S3745.49,519,3496.92,519c-16.83,0-33.16.72-49.06,2C3442,527.75,3447.13,532.85,3480.35,531Z" transform="translate(5154.37 5110.3)" fill="#0099a8"/>
        <path d="M3927.76,907.12c113.24,0-317.6,62.94-154.66,65.93s-309.32,36-168.47,43.46,8.29,27-157.42,22.48-121.52,0-165.71-56.94-127-110.9-102.18-74.93-113.24,136.36,2.76,130.37-201.61,37.46-93.9,40.46,27.62,28.47-104.95,39-359,12-226.47,0-19.33-18-160.18-15-281.7-39-364.56-46.46,58-30,0-51-121.52-15-60.76-7.49-82.85,59.94-16.57,67.43,140.85,16.49,80.09,25.48-174,6-298.27,16.48-149.14,13.49-63.52,22.48-259.61,31.47-342.46,12-196.09-51-143.62-24,11,16.49-91.14,24c-13.82,1-26.36,1.72-37.54,2.23,5,1.46-.82,5-15.27,9.72,31.11,5.07,9.74,7.38-33.67,9.51-34.89,8.83-85.43,19.47-144.19,29.49H3983V897.5C3927,903.3,3900.51,907.12,3927.76,907.12Z" transform="translate(5154.37 5110.3)" fill="#0088a6"/>
      </g>
      <g>
        <rect x="4153" y="7603.54" width="3624.37" height="1117.76" fill="#00d1fa"/>
        <path d="M-1001.37,2586c342.14-8.7,813.31,27.54,453.77,30.44s649.49-4.35,292.85,30.45-84.09,46.39,218.91,31.89,764,5.8,305.9,23.2,710.38,21.74,294.3,49.29,355.18,56.68,0,68.93,203,23.85-192.81,44.15,739.37,13,439.27,37.69-165.27,65.24,81.19,49.29,652.39-58,337.79-58-233.41-44.94,85.54-44.94,511.76-27.54,131.92-50.74-590-27.54-131.92-17.4,297.2-23.19,650.93-29,366.79-24.65,24.65-33.35-62.34-13,249.36-26.09,390-46.39,52.19-52.19-281.25-36.25-33.35-36.25S2623,2586,2623,2586V3331.2H-1001.37Z" transform="translate(5154.37 5110.3)" fill="#00bbfa"/>
        <path d="M-1001.37,2794.79c97.86-.72,279.8,100.76,240.66,71s-18.12-13,63.79,12.32,116.7,21.75,183.39,33.35,95.68,4.35,22.47-9.43,76.11-14.92,145.7,20.45,196.44,57.84,271.83,70.16,45.67,18.85-11.6,13.77,27.55,28.28,113.81,31.9,90.6-5.07,187,8,42.05-2.9-24.64-13.77,88.43-18.47,171.79,18.67,174.7,56,257.33,71.21,66.69-4.34,0-13-1.45-25.37,110.91-.73,322.57,17.4,400.85.73,56.54-4-46.39,18.67,116,.17,213.11-28.1,137.73-34.07,26.1-17.39,76.11-42.77,179.77-49.29,193.54-36.25,290-24.65,134.1-28.89,213.84-50.69-10.88,18.07-39.15,29.67,107.28-8,155.13-38.42,124.67-10.87,190.64-48.57,160.92-62.34,106.55-41.31,46.4-4.67,97.14-29.16S2623,2810.74,2623,2810.74v649.32H-1001.37Z" transform="translate(5154.37 5110.3)" fill="#b3ffff"/>
        <rect x="4153" y="7603.54" width="3624.37" height="14.5" fill="#7affc3"/>
        <path d="M-1001.37,2500.49c37.69,7.25,375.48,8.7,284.15,20.3s-40.59,17.4,137.73,14.5,785.76-18.85,566.85,1.45,452.32,8.69,216,29,478.42,2.9,252.26,34.8-520.46,18.84-304.45,27.54,527.71,21.75,339.24,46.39,152.22,7.25-62.34,40.6-139.17,62.33,30.45,56.54,79.73,24.64-56.54,31.89-55.09,31.89,124.67,18.85,130.48,27.54-46.39,37.69,403,0,234.86,26.1-8.7,49.29,92.79,40.59,339.24-23.2,187-27.55,172.52-55.09,49.29-49.29-246.45-10.15-72.48-33.34,388.53-66.69,203-65.24,340.69-66.69,42-44.94,46.4-23.2,153.68-33.35,350.84-36.24,121.78-33.34,298.64-23.2,92.78-31.9-62.34-24.64,240.66-21.74,494.36-47.84,258-34.8-169.62-8.69,105.84-15.94S2623,2507.74,2623,2507.74Z" transform="translate(5154.37 5110.3)" fill="#2ceafa"/>
        <path d="M1444.35,2500.49l-1179.21-7.25c-222.69,0,189,17.4,81.76,24.65s243.55,29,72.48,29,40.6,34.8,194.27,30.45-11,21.37-118.56,15.76S331,2633.87,518,2616.47s247.9,5.8,110.18,4.35,159.47,24.65,65.23,36.25-14.49,21.74,117.43,21.74,310.25-30.44,152.23-26.09,236.31-31.9,78.28-26.1-1.45-21.75,136.28-27.54,229.06-18.85,52.19-13-98.58-20.3,40.59-24.65,149.33-21.74,56.54-13.05,195.72-18.84,95.69-20.29S1527,2496.14,1444.35,2500.49Z" transform="translate(5154.37 5110.3)" fill="#7affc3"/>
        <path d="M526.66,2691.86c-249.36,8.6-377.41,13.53-211.18,19.81s-212.14,29.48,48.81,26.58,221.33-26.58,133.86-25.61S610.75,2689,526.66,2691.86Z" transform="translate(5154.37 5110.3)" fill="#7affc3"/>
        <path d="M989.13,2715.06c371.34-16.33,684.28-13,449.43,0s213.11,14.49-34.8,36.24-620.49,40.59-376.93,18.85,442.17-49.3,207.31-31.9S857.21,2720.85,989.13,2715.06Z" transform="translate(5154.37 5110.3)" fill="#7affc3"/>
        <path d="M-1001.37,2634c350.84,18.73,856.8,47.72,506,57.87s566.85,44.94,227.61,52.19-18.85,42,371.14,46.39,744,80.3,390.11,74.95,553.94,50,243.56,49.11-422,18-622.07.62-229.06-58,0-46.39S-75,2838.28-334.49,2803.49s-347.94-27.55-91.33,18.85,47.84,20.29-178.32-18.85S-839,2731-678.08,2738.25s-323.29-26.09-323.29-26.09Z" transform="translate(5154.37 5110.3)" fill="#00d1fa"/>
        <path d="M2623,2712.16c-185.57,7.24-453.77-39.15-632.09,2.9s706,53.64,308.8,63.78-991.19,24.23-643.47,47.64-229.28,64,136,64-211.66,49.29-504.51,29-333,32.68-428.9,33.74,133.15,21.35,530.38,25.7,856.81-97.13,681.39-91.33,362.43-60.89,205.86-49.3S2623,2779.79,2623,2779.79Z" transform="translate(5154.37 5110.3)" fill="#00d1fa"/>
      </g>
      <g>
        <path d="M2.63,1983.9c74.7-9.73,216.82,62.57,403.38,62.67,368.61.18,430.44,60.45,654.21,64.4,271.1,4.78,538,69.69,753.87,69.69,543.66,0,639.34-78.57,856.8-69s391.43-51.92,548-51.92S3482,1983.9,3627,1983.9V2418H2.63Z" transform="translate(5154.37 5110.3)" fill="#ffffc2"/>
        <path d="M2.63,1997.13c38-4.66,257.57,41.13,163.2,39.19-73.16-1.5,320.4,56.66,240.18,32.15-60.76-18.57,279.16,12.71,365.64,26.43,97.13,15.41,390.74,67.21,288.57,34.18-80-25.87,538,65.57,753.87,65.57,128.4,0,231.17-8.09,317.74-10.31,129-3.3,704.72-45,539.06-54.62C2553.7,2122.94,2840,2126,2915.52,2116c110.94-14.7,210.24-35.17,303.38-35.17,88.46,0,314.23-45,233.45-42.6-113.85,3.34,111.59-41.47,174.65-41.47V2418H2.63Z" transform="translate(5154.37 5110.3)" fill="#ffd984"/>
        <path d="M2.63,2086.61c133.59,49.17,468.47,68.36,325,37.18s-21.75-59.21,250.07-11,56.53,37.72-71.76,26.17,442.37,68.81,601.73,88,281.12,32.38,485.53,43.18,165.26-3.6-47.84-19.19-141.35-21.59,197.88-6,539.57,10.79,725.35-7.2,181.42-4.8-14.29,21.59,269.64,1.2,515.36-36,430.56-79,73.94-43.1,174-37.26,328.35-62.45,255.1-48.35,255.1-48.35V2418H2.63Z" transform="translate(5154.37 5110.3)" fill="#ffc57f"/>
        <path d="M2.63,2225.83c339.84,102,696,134.12,928.92,137.9s82.2-5.67-167.82-32.12,84.92-5.06,511.67,18.25,639.45,25.2,957.78,23.31,157.5-22.66-108-20.78,66.72-11.33,484.55-28.33,866.51-52.29,462.37-10.09,339.2,31,554.89-50.3V2418H2.63Z" transform="translate(5154.37 5110.3)" fill="#ffb47a"/>
      </g>
      <rect x="7429.37" y="7354.3" width="3951.03" height="2233.11" rx="4" fill="#d5f3e4"/>
      <rect x="7586.37" width="3756" height="1723.25" fill="url(#linear-gradient)"/>
      <g>
        <path d="M-1758.22-1915s64.32-623.38-184.62-623.38c-139.27,0-187.61,104.5-187.61,104.5S-2223-2614.36-2384-2614.36s-239.33,314.26-239.33,314.26-65.06-127.43-105.32-93.45-12.58,186.89-12.58,186.89-37.74-51-52.84,0,0,105.45,0,105.45-60.38-71.47-118.25-29-32.71,141.61-32.71,141.61-269.38-174.2-269.38,73.59Z" transform="translate(5154.37 5110.3)" fill="#fff" opacity="0.5"/>
        <path d="M-2703.42-1915l281.79-107.3s7.28-223.48,187-264.78,189.48,204,189.48,204,29.15-104.46,68-89.88,42.55,55.87,42.55,55.87,51.59-228.34,206.14-206.48S-1569-1915-1569-1915Z" transform="translate(5154.37 5110.3)" fill="#fff"/>
      </g>
      <g>
        <path d="M-2855.3,709.13c249.06,2.59,725.14-4.06,568.52,17.59s295.1,2,156.21,29-357.34-30-441.44-6.67S-3019.29,707.43-2855.3,709.13Z" transform="translate(5154.37 5110.3)" fill="#c8e8ff"/>
        <path d="M-1758.93,1101c147.79-20.42,278.64,6.17,176.74,20.07s80.5,87.56,431.26,20.92,546.47,431.43-251.15,214S-1758.93,1101-1758.93,1101Z" transform="translate(5154.37 5110.3)" fill="#c8e8ff"/>
        <path d="M-3607.51,1130c250.82-21.08,496.06-11.4,380.41,51.65-135,73.6,839,1.8,720.49,82s-1342.25,147.58-1268.91,41.8S-3879.85,1152.89-3607.51,1130Z" transform="translate(5154.37 5110.3)" fill="#c8e8ff"/>
      </g>
      <path d="M-2386.42,1851.14l-9.74-32.26-11.5,29.49L-2571.15,1827l-7.78-25.79-9.2,23.58-80.25-10.48-10-33-11.77,30.17-79.26-10.35-4.62-15.29-5.45,14-171.13-22.33c-107.62,0-98.9,110.48-98.9,110.48H-2104Z" transform="translate(5154.37 5110.3)" fill="#003251"/>
      <circle cx="2466.45" cy="5133.87" r="68.4" fill="#fff"/>
      <g>
        <g>
          <path d="M4942.46-1484.09s-15.83-15-16.77-30.19,12.36-21.89,25.37-15.36c15.69,7.88,28,51.35,28,51.35S4957.94-1469.64,4942.46-1484.09Z" transform="translate(5154.37 5110.3)" fill="#ba573c"/>
          <path d="M4936.6-1490.62c-3.68-4.62-8.07-11.22-10-18.25,6.41-6.19,15-1.71,15-1.71S4943.59-1499.09,4936.6-1490.62Z" transform="translate(5154.37 5110.3)" fill="#99321a"/>
        </g>
        <g>
          <rect x="4915.05" y="-1568.62" width="1.99" height="188.39" transform="translate(7531.63 8096.36) rotate(-43.66)" fill="#001423"/>
          <path d="M5005.52-1380.65s8.46-6.62-3.91-19.58c-7.68-8-19.26-14.21-26.93-17.72-3.47-1.58-6.39,1.21-5,4.75,3.15,7.82,8.76,19.68,16.44,27.73C4998.51-1372.51,5005.52-1380.65,5005.52-1380.65Z" transform="translate(5154.37 5110.3)" fill="#00508d"/>
          <path d="M4849-1541c1.2,1.25,3,1.49,4,.53s.85-2.75-.35-4-3-1.49-4-.53S4847.79-1542.31,4849-1541Z" transform="translate(5154.37 5110.3)" fill="#002a4d"/>
          <g opacity="0.6" style="mix-blend-mode: overlay">
            <path d="M5002.23-1384.1s6.3-4.89-3.31-15c-6-6.26-14.87-11.15-20.76-14-2.65-1.27-4.83.8-3.68,3.52,2.52,6,7,15.13,13,21.38C4997.05-1378,5002.23-1384.1,5002.23-1384.1Z" transform="translate(5154.37 5110.3)" fill="#001423"/>
          </g>
          <path d="M4999.72-1386.94a.34.34,0,0,1-.09.12.66.66,0,0,1-.91,0l-21.24-22.27a.64.64,0,0,1,0-.91.66.66,0,0,1,.91,0l21.24,22.27A.64.64,0,0,1,4999.72-1386.94Z" transform="translate(5154.37 5110.3)" fill="#fff"/>
        </g>
        <g>
          <path d="M4836.55-1408.06s-14.83,6.77-11,24,21.17,29.24,90.66,29.24,128.53-13.26,142-34.33c9.74-15.29-13.05-20.22-13.05-20.22s-23.32,19.25-68.66,27.61C4915.69-1370.52,4875.74-1385.75,4836.55-1408.06Z" transform="translate(5154.37 5110.3)" fill="#bc180f"/>
          <path d="M4836.55-1408.06s120.61,76.44,200.54,28.9l13-8.87c12-11.32,5.26-23.09-16.22-23.09H5022c-12.84,0-25.27,3.1-34.81,8.79C4941.32-1375,4901.27-1372.35,4836.55-1408.06Z" transform="translate(5154.37 5110.3)" fill="#ffa643"/>
          <path d="M5020-1367.16c-26.88,8.15-64.26,12.39-103.76,12.39-68.6,0-86.16-11.65-90.5-28.58,0,0-1.4-13,8.53-13.08C4861.41-1396.7,4905.46-1344.24,5020-1367.16Z" transform="translate(5154.37 5110.3)" fill="#003251"/>
          <g opacity="0.25" style="mix-blend-mode: overlay">
            <path d="M5049-1393.67c-5.29,8.74-47.89,32.17-104.23,27.39-21.76-3.65-42.57-10.53-60-17.67,21.15,5.17,49.91,8.49,75-1.53,46.39-18.53,43.84-23.28,63.84-22.85S5055.55-1404.58,5049-1393.67Z" transform="translate(5154.37 5110.3)" fill="#fff"/>
          </g>
          <g opacity="0.25" style="mix-blend-mode: overlay">
            <path d="M5056-1399.33c.12,3.51-1.8,7.42-5.92,11.3l-2.73,1.87a529.66,529.66,0,0,1-61.06,3.38c-14.44,0-28.38-.53-41.53-1.51a132.57,132.57,0,0,0,30.57-11.47c3.94-2,7.88-4.18,11.89-6.57,9.54-5.68,21.95-8.79,34.8-8.79h11.85C5048-1411.12,5055.74-1406,5056-1399.33Z" transform="translate(5154.37 5110.3)" fill="#fff"/>
          </g>
          <g opacity="0.25" style="mix-blend-mode: overlay">
            <path d="M5056-1399.33c-12.19,3.45-29.7,5.62-49.17,5.62a230.48,230.48,0,0,1-31.5-2c3.94-2,7.88-4.18,11.89-6.57,9.54-5.68,21.95-8.79,34.8-8.79h11.85C5048-1411.12,5055.74-1406,5056-1399.33Z" transform="translate(5154.37 5110.3)" fill="#fff"/>
          </g>
          <g style="mix-blend-mode: overlay">
            <path d="M5050.07-1388l-7.42,5.07c-11.11-2.25-23-7.49-30.16-12.64l9.19-2.11,33.79-4.22C5056.94-1397.86,5055.25-1392.9,5050.07-1388Z" transform="translate(5154.37 5110.3)" fill="#001423"/>
          </g>
          <g style="mix-blend-mode: overlay">
            <path d="M5027.67-1374.21c-18.52,8.57-38.77,11.32-58.94,10.49-14.75-.61-41.17-12.11-43.08-12.85-10-3.87-23.18-3-23.18-3a67.68,67.68,0,0,1,11.2-2.21h0a18.34,18.34,0,0,1,6,.22h0a5.54,5.54,0,0,1,1.3.47S4996.25-1375.48,5027.67-1374.21Z" transform="translate(5154.37 5110.3)" fill="#001423"/>
          </g>
          <g opacity="0.5" style="mix-blend-mode: overlay">
            <path d="M4917.9-1354.77h-1.71c-45.85,0-68.9-5.21-80.44-13.72l-.09-.32s-1.4-13,8.53-13.09C4859.81-1382,4881-1365,4917.9-1354.77Z" transform="translate(5154.37 5110.3)" fill="#001423"/>
          </g>
        </g>
        <g>
          <path d="M4986.77-1438.69c.13,2.71-15.48,14.38-30.55,4,0,0,1.77-15,11.77-17.47S4986.77-1438.69,4986.77-1438.69Z" transform="translate(5154.37 5110.3)"/>
          <g>
            <path d="M4945.49-1470.52l12.67,42.24s1.22,10.46,17.4,12.78l35,4.33a4.52,4.52,0,0,1,4,4.37l.48,6.28-5.18,1.67h0a3.17,3.17,0,0,0,2.68,3.24l1.13.18a9.92,9.92,0,0,0,8.06-2.28h0a10,10,0,0,0,3.4-8.48l-1.25-12.87a.41.41,0,0,0,0-.11,4.44,4.44,0,0,0-6.48-3.33c-2.47,1.29-4.43,2.78-15-2.09a85.89,85.89,0,0,0-20.4-6.22l-10-41.62S4971.86-1486.81,4945.49-1470.52Z" transform="translate(5154.37 5110.3)" fill="#ba573c"/>
            <path d="M4956.22-1434.73s17.3-5.26,25,1.17l-3.37-14S4958.83-1454.26,4956.22-1434.73Z" transform="translate(5154.37 5110.3)" fill="#99321a"/>
            <path d="M5025.13-1405.24a9.91,9.91,0,0,1-3.45,7.53,10,10,0,0,1-3.13,1.83c-.77-2.51-.55-3.3,2-6,1.94-2-3.27-13.93.49-18,1.51-1.64,2.58-.19,2.86,1.58l1.18,12.1C5025.11-1405.87,5025.13-1405.56,5025.13-1405.24Z" transform="translate(5154.37 5110.3)" fill="#99321a"/>
            <path d="M4973.46-1427.08a.4.4,0,0,1-.15,0,.32.32,0,0,1-.15-.43c1.88-3.87,5.91-4,7.8-3.75a6.8,6.8,0,0,0-4.09-.73.32.32,0,0,1-.37-.28.33.33,0,0,1,.28-.37c.16,0,3.89-.49,5.39,1.67a.33.33,0,0,1,0,.37.29.29,0,0,1-.34.13c-.24-.06-5.81-1.4-8.07,3.24A.32.32,0,0,1,4973.46-1427.08Z" transform="translate(5154.37 5110.3)" fill="#721b0a"/>
          </g>
          <g>
            <path d="M4936.55-1478.29l-28.27,15.77c-7.32,5.78-6.81,8.69-4.31,17.9l5.24,49c.8,2.93-.09,7.25-3,8.18l-12.33,3.58c0,.18,0,.37,0,.55.31,3,5.62,4.3,8.55,3.75a108.74,108.74,0,0,1,18.54-1.52c1.94-.12,3-3.81-1.11-10.07-7.76-11.79,8.17-36.42,2.67-54.35l28.45-6.62S4984.6-1497.36,4936.55-1478.29Z" transform="translate(5154.37 5110.3)" fill="#ba573c"/>
            <path d="M4924.11-1471.35s-9.81,13.89-1.54,25.87l13.65-3.18S4943.74-1468.35,4924.11-1471.35Z" transform="translate(5154.37 5110.3)" fill="#99321a"/>
            <path d="M4913.26-1388l-.28,0a3.66,3.66,0,0,1-2.19-1.36.32.32,0,0,1,.06-.45.33.33,0,0,1,.46.06,3,3,0,0,0,1.75,1.1,1.83,1.83,0,0,0,1.42-.48l1.93-1.58a.32.32,0,0,1,.46,0,.33.33,0,0,1-.05.46l-1.93,1.59A2.55,2.55,0,0,1,4913.26-1388Z" transform="translate(5154.37 5110.3)" fill="#721b0a"/>
            <path d="M4922.57-1445.16a.33.33,0,0,1-.31-.23c0-.13-1.12-3.29-5.76-2.95a.32.32,0,0,1-.35-.3.32.32,0,0,1,.3-.34c5.17-.39,6.42,3.36,6.43,3.4a.31.31,0,0,1-.21.4A.18.18,0,0,1,4922.57-1445.16Z" transform="translate(5154.37 5110.3)" fill="#721b0a"/>
          </g>
          <g>
            <path d="M4939.89-1482s.33-5.84,12.81-9.35,27.38,4.38,27.22,11.15S4947.67-1467.82,4939.89-1482Z" transform="translate(5154.37 5110.3)" fill="#003251"/>
            <path d="M4936.55-1478.29l-12.45,6.94s-9.24,19.38,9.23,32.66l18.32-11.31,4.57,15.27s21.94-11,30.55-4l-6.13-23.78s2.54-9.33.27-15.82C4979.93-1481.09,4952.36-1498.72,4936.55-1478.29Z" transform="translate(5154.37 5110.3)" fill="#ffa643"/>
            <path d="M4939.52-1442.51l-6.19,3.82c-18.47-13.28-9.22-32.66-9.22-32.66l5.76-3.22C4927.29-1468.3,4923.16-1451.71,4939.52-1442.51Z" transform="translate(5154.37 5110.3)" fill="#003251"/>
            <path d="M4986.77-1438.69c-8.61-7-30.55,4-30.55,4l-1.35-4.53c4.84-3.6,17.1-11.2,29.92-7.14Z" transform="translate(5154.37 5110.3)" fill="#003251"/>
            <g style="mix-blend-mode: overlay">
              <path d="M4951.65-1450l13.28-8.08s3.34,9.6-11.27,14.8Z" transform="translate(5154.37 5110.3)" fill="#001423"/>
            </g>
            <g>
              <path d="M4946.69-1470.93a.31.31,0,0,1-.2-.07c-5.63-4.43-.12-12.09-.06-12.17a.32.32,0,0,1,.46-.07.33.33,0,0,1,.07.45c-.22.3-5.21,7.24-.07,11.28a.32.32,0,0,1,.06.46A.34.34,0,0,1,4946.69-1470.93Z" transform="translate(5154.37 5110.3)" fill="#ce3506"/>
              <path d="M4932.76-1468a.34.34,0,0,1-.29-.17.33.33,0,0,1,.13-.44l11.51-6.27a.33.33,0,0,1,.45.13.34.34,0,0,1-.13.44l-11.51,6.27A.32.32,0,0,1,4932.76-1468Z" transform="translate(5154.37 5110.3)" fill="#ce3506"/>
            </g>
            <path d="M4946.69-1446.56a.32.32,0,0,1-.27-.16.31.31,0,0,1,.1-.44l18.24-11.19a.34.34,0,0,1,.28,0s4.21,1.36,9.9-2.67a.34.34,0,0,1,.46.08.34.34,0,0,1-.08.46c-5.44,3.84-9.51,3-10.34,2.79l-18.12,11.11A.34.34,0,0,1,4946.69-1446.56Z" transform="translate(5154.37 5110.3)" fill="#ce3506"/>
          </g>
        </g>
        <g>
          <path d="M4929.43-1527c-5.68,5.33-16.4,24.2-16.4,24.2l-28.44-8.39c-.49-1.19-2.57-5.55-6.35-4.27l3.18,3.33c-.84,1.41-2.8,0-5.2-2.57,0,0-3.6-1.59-2.6,5s9.81,6.3,9.81,6.3l29.48,19.25a6.86,6.86,0,0,0,8.84-1.13c7.14-7.83,21.43-24.28,22.52-31.54C4945.73-1526.58,4936.59-1533.71,4929.43-1527Z" transform="translate(5154.37 5110.3)" fill="#ba573c"/>
          <path d="M4916.58-1498.72a.31.31,0,0,1-.31-.26c-.33-1.44-1.9-2.63-2.78-3.2l.58,3.07a.32.32,0,0,1-.26.38.32.32,0,0,1-.38-.26l-.72-3.77a.33.33,0,0,1,.13-.32.3.3,0,0,1,.34,0c.13.07,3.2,1.67,3.72,4a.32.32,0,0,1-.25.39Z" transform="translate(5154.37 5110.3)" fill="#721b0a"/>
          <path d="M4941.64-1510.25a.37.37,0,0,1-.2-.07.34.34,0,0,1-.07-.44c3.32-5.11,2.59-8,2.59-8a.31.31,0,0,1,.22-.39.32.32,0,0,1,.4.22c0,.11.6,2.25-1.27,6.1l1.94-2.09a.33.33,0,0,1,.46,0,.32.32,0,0,1,0,.46l-3.85,4.14A.32.32,0,0,1,4941.64-1510.25Z" transform="translate(5154.37 5110.3)" fill="#721b0a"/>
          <path d="M4932-1496.81a.3.3,0,0,1-.19-.07.32.32,0,0,1-.07-.45l9.67-13.44a.32.32,0,0,1,.45-.07.32.32,0,0,1,.08.45l-9.67,13.44A.35.35,0,0,1,4932-1496.81Z" transform="translate(5154.37 5110.3)" fill="#721b0a"/>
        </g>
        <g>
          <path d="M4924.43-1526.81s2-1.43,4,1.61,14.42-.14,13.86-6.92c0,0-8,1-10-5.89,0,0-3.83-3-6.63,1.84C4924.07-1533.44,4924.43-1526.81,4924.43-1526.81Z" transform="translate(5154.37 5110.3)" fill="#ba573c"/>
          <path d="M4931-1524.15a3.19,3.19,0,0,1-2.5-1.06c-2-3-4-1.6-4-1.6s-.36-6.63,1.22-9.36a6.52,6.52,0,0,1,1.56-1.88,13.57,13.57,0,0,1,3.11,4.73S4933.78-1530.38,4931-1524.15Z" transform="translate(5154.37 5110.3)" fill="#99321a"/>
        </g>
        <g>
          <path d="M4930.47-1539.82c1.31,5.65-1.91,11.09-6.77,14.37s-10.56-3.88-11.88-9.53a10.51,10.51,0,0,1,7.84-12.61C4925.31-1548.91,4929.15-1545.47,4930.47-1539.82Z" transform="translate(5154.37 5110.3)" fill="#ba573c"/>
          <path d="M4914.34-1533.47c.19.49.08,1-.25,1.11s-.74-.16-.93-.65-.07-1,.25-1.11S4914.16-1533.95,4914.34-1533.47Z" transform="translate(5154.37 5110.3)"/>
          <path d="M4919.89-1535.42c.19.49.07,1-.25,1.11s-.75-.17-.93-.66-.08-1,.25-1.11S4919.7-1535.91,4919.89-1535.42Z" transform="translate(5154.37 5110.3)"/>
          <path d="M4918.59-1529l2.69-2.74s1.12,2,.28,3.53S4918.59-1529,4918.59-1529Z" transform="translate(5154.37 5110.3)" fill="#fff"/>
          <path d="M4917.13-1529.65h0c-.95-.1-2.12-.34-2.25-.91,0-.18,0-.46.41-.72a5.25,5.25,0,0,1,2.39-.8.31.31,0,0,1,.33.32.32.32,0,0,1-.32.33,4.68,4.68,0,0,0-2,.7l-.07,0a5.66,5.66,0,0,0,1.63.39.33.33,0,0,1,.29.36A.33.33,0,0,1,4917.13-1529.65Z" transform="translate(5154.37 5110.3)" fill="#721b0a"/>
          <path d="M4916.48-1531.19a.33.33,0,0,1-.32-.25l-.43-1.72a.32.32,0,0,1,.23-.39.33.33,0,0,1,.4.23l.43,1.72a.33.33,0,0,1-.23.4Z" transform="translate(5154.37 5110.3)" fill="#721b0a"/>
          <path d="M4910.78-1546.81s-2.06,8.3-.95,9.31a3.54,3.54,0,0,0,1.72,1c.23-5.83,9.51-6.72,10.52-1.66.18.9,1.63.8,2.32.19h0l1.26,3.28s1,1.27,1.19-.1c.17-1.19.13-5,1.18-5.27,2.28-.62,4.7,5.86,2.3,6.69a5.44,5.44,0,0,0,5.56-.32s1.22-3-.91-4.75a13.38,13.38,0,0,0,1.22-4.31l-1.61-.11s.45-4.45-.61-6.84l-1,.67s-1.18-5.79-7.32-5.23l-6.14.56,1.5-1.28s-5.06.28-7.26,3.83l-.58-1.5A34.69,34.69,0,0,0,4910.78-1546.81Z" transform="translate(5154.37 5110.3)"/>
          <path d="M4914.29-1535.44s-.93-1.12-2-.58-.27.91-.27.91S4913.9-1534.82,4914.29-1535.44Z" transform="translate(5154.37 5110.3)"/>
          <path d="M4916.58-1536.29s0-1.85,1.46-2.17,1,.67,1,.67S4917.47-1536,4916.58-1536.29Z" transform="translate(5154.37 5110.3)"/>
          <path d="M4929.72-1534.87h0a2.35,2.35,0,0,1-1.76-2.52,1.21,1.21,0,0,1,.43-1.06,1.11,1.11,0,0,1,.93-.12.33.33,0,0,1,.21.41.33.33,0,0,1-.41.21.5.5,0,0,0-.35,0,.68.68,0,0,0-.16.53,1.73,1.73,0,0,0,1.2,1.87.34.34,0,0,1,.28.37A.34.34,0,0,1,4929.72-1534.87Z" transform="translate(5154.37 5110.3)" fill="#721b0a"/>
          <path d="M4929.62-1536.24h-1.26a.32.32,0,0,1-.32-.32.32.32,0,0,1,.32-.33h1.26a.33.33,0,0,1,.33.33A.32.32,0,0,1,4929.62-1536.24Z" transform="translate(5154.37 5110.3)" fill="#721b0a"/>
        </g>
        <g>
          <path d="M4843-1365.64c-19.56-10.13-36.86-19.26-23.9-2.69s42.72,17.39,69.37,17.39,51.53-7.77,51.38-20-22.16,10.24-37.42,11.28,9.05-17.87,0-15.9-13.32,11.94-17.74,12-.33-12-9.68-12S4856-1358.94,4843-1365.64Z" transform="translate(5154.37 5110.3)" fill="#c8e8ff"/>
          <path d="M4954.87-1356.3s42-19.47,48-19.13.33,4.32-2.25,7.1,19.5-6,13.64-1.19S4976-1353.32,4954.87-1356.3Z" transform="translate(5154.37 5110.3)" fill="#c8e8ff"/>
          <path d="M5029.76-1370.95c-1-.58,8.68-22.3,16.52-26.64s-4.47,9,2.43,9.56,20.52-6.68,15-1.39-9.79,7.81-3.06,11.29S5042.31-1363.9,5029.76-1370.95Z" transform="translate(5154.37 5110.3)" fill="#c8e8ff"/>
          <path d="M4941.65-1359.68c.8-8.07,7.55-13.81,11.94-11.85S4941.39-1357.07,4941.65-1359.68Z" transform="translate(5154.37 5110.3)" fill="#c8e8ff"/>
          <path d="M4826.11-1381.89c-11.84-7.27-17.28-19-8.9-15.95S4829.78-1379.63,4826.11-1381.89Z" transform="translate(5154.37 5110.3)" fill="#c8e8ff"/>
          <path d="M4795.52-1359.34c1.32-16.85-8.2-29.36-17.5-22S4795-1352.72,4795.52-1359.34Z" transform="translate(5154.37 5110.3)" fill="#c8e8ff"/>
          <path d="M4780.52-1358c-8.75-.44-8.72,4.61,2,6.25S4786.16-1357.71,4780.52-1358Z" transform="translate(5154.37 5110.3)" fill="#c8e8ff"/>
          <path d="M4867-1378.8c-2.22-.62-3.25-10.41,4-9.18S4870-1378,4867-1378.8Z" transform="translate(5154.37 5110.3)" fill="#fff"/>
          <path d="M4963.82-1366.32c4.75-6.94,8-4.6,4.91-2S4961.92-1363.54,4963.82-1366.32Z" transform="translate(5154.37 5110.3)" fill="#fff"/>
          <path d="M4952.8-1361.68c-1.05-3.28.94-4.75,3.6-4.11S4953.3-1360.13,4952.8-1361.68Z" transform="translate(5154.37 5110.3)" fill="#fff"/>
          <path d="M5044.73-1378.75c3.09-5.25,6.53-5,8.11-2.91S5042.36-1374.72,5044.73-1378.75Z" transform="translate(5154.37 5110.3)" fill="#fff"/>
          <path d="M4843.9-1373.81c-1.62-9-12.69-6.74-8.23-2.06S4845-1368,4843.9-1373.81Z" transform="translate(5154.37 5110.3)" fill="#fff"/>
          <path d="M4864.13-1375.82c.86-5.18-4.31-5.35-4.5-1.64S4862.68-1367.06,4864.13-1375.82Z" transform="translate(5154.37 5110.3)" fill="#fff"/>
          <path d="M4873-1364.66c4.32-8.93,13.67-11.25,14.88-7.59S4870.07-1358.57,4873-1364.66Z" transform="translate(5154.37 5110.3)" fill="#fff"/>
          <path d="M4875.64-1352.28c10.54-1,24.67-.3,17.94,2.29S4868.86-1351.64,4875.64-1352.28Z" transform="translate(5154.37 5110.3)" fill="#fff"/>
          <path d="M4969.66-1356.4c5.65-2.16,16.95-5.75,18.5-4.83s-4.17,2.62-1.64,2.4,10.78-.91,9.09.58-12.55,1.3-8.33,1.85,5.74,3.2-3.12,2.51S4965.67-1354.87,4969.66-1356.4Z" transform="translate(5154.37 5110.3)" fill="#fff"/>
        </g>
      </g>
      <g>
        <g>
          <g>
            <path d="M4279.6,728.68a.25.25,0,0,1-.24-.2l-2.42-12.19-2.71-.85a.24.24,0,0,1-.16-.3.25.25,0,0,1,.31-.16l2.84.89a.23.23,0,0,1,.16.18l2.46,12.34a.23.23,0,0,1-.19.28Z" transform="translate(5154.37 5110.3)" fill="#c8e8ff"/>
            <rect x="9430.52" y="5828.6" width="6.08" height="11.56" fill="#c8e8ff" opacity="0.5"/>
            <path d="M4276.94,721.24a2.5,2.5,0,0,1,2.18.18,2.38,2.38,0,0,0,2.32-.09v4.53h-4.5Z" transform="translate(5154.37 5110.3)" fill="#bc180f"/>
            <path d="M4279.6,722.23c-.78.31-1.82-.58-2.35-.83l-.31-.16v8h4.5v-7.86C4280.9,721.33,4280.65,721.83,4279.6,722.23Z" transform="translate(5154.37 5110.3)" fill="#ffa643"/>
            <path d="M4278.51,726.54a.57.57,0,1,1-.57-.56A.56.56,0,0,1,4278.51,726.54Z" transform="translate(5154.37 5110.3)" fill="#bc180f" style="mix-blend-mode: overlay"/>
            <circle cx="9433.73" cy="5835.16" r="0.24" fill="#bc180f" style="mix-blend-mode: overlay"/>
            <path d="M4280.58,727.54a.43.43,0,0,1-.44.44.44.44,0,0,1-.44-.44.44.44,0,0,1,.44-.44A.44.44,0,0,1,4280.58,727.54Z" transform="translate(5154.37 5110.3)" fill="#bc180f" style="mix-blend-mode: overlay"/>
            <path d="M4281.12,724.52a.27.27,0,1,1-.27-.27A.27.27,0,0,1,4281.12,724.52Z" transform="translate(5154.37 5110.3)" fill="#bc180f" style="mix-blend-mode: overlay"/>
            <circle cx="9432.32" cy="5834.55" r="0.17" fill="#bc180f" style="mix-blend-mode: overlay"/>
            <path d="M4280.85,726.08a.25.25,0,0,1-.25.25.26.26,0,0,1-.26-.25.26.26,0,0,1,.26-.26A.26.26,0,0,1,4280.85,726.08Z" transform="translate(5154.37 5110.3)" fill="#bc180f" style="mix-blend-mode: overlay"/>
            <path d="M4280.32,723a.36.36,0,0,1-.36.36.36.36,0,1,1,0-.72A.36.36,0,0,1,4280.32,723Z" transform="translate(5154.37 5110.3)" fill="#bc180f" style="mix-blend-mode: overlay"/>
            <path d="M4281.44,718.3s-.77,8.78-5.29,8.78v2.78h6.08V718.3Z" transform="translate(5154.37 5110.3)" fill="#c8e8ff" opacity="0.5" style="mix-blend-mode: multiply"/>
          </g>
          <path d="M4246.8,726.07s3.92.25,7.76,4.91a38.16,38.16,0,0,0,8.71,7.56l9.8-13.8s.69-2.79,3.08-2.79h4.6s-1.7,1.81-2.77,1.81a2.79,2.79,0,0,0-1.83.8v5.3l-10,22.17s-16.32-8.19-20.7-12.66S4239.15,727.69,4246.8,726.07Z" transform="translate(5154.37 5110.3)" fill="#99321a"/>
        </g>
        <g>
          <path d="M4274.93,766.28s5.06-13.17-11.47-18.68c0,0-7,8.29-3.69,14.66S4274.93,766.28,4274.93,766.28Z" transform="translate(5154.37 5110.3)" fill="#000b39"/>
          <path d="M4250.17,772.11s19.15-.19,29.63-23.65c0,0-.68,9.45,7.3,14.79,4.3,2.88,4.77,5.38,4.39,7a1.52,1.52,0,0,0,1.46,1.9l14.37,0,.22-1-10.78-4.73-14.1-28.3a6.32,6.32,0,0,0-8.66-1.23l-17.22,15.9S4234.9,763.89,4250.17,772.11Z" transform="translate(5154.37 5110.3)" fill="#99321a"/>
          <g>
            <path d="M4257.34,714.9s-6.26,3-3.57,7.81c0,0-3.7,3.08-12,1.64,0,0,5.07-3.68,3.08-11.56C4249,709.05,4253.15,709.82,4257.34,714.9Z" transform="translate(5154.37 5110.3)" fill="#ba573c"/>
            <path d="M4257.34,714.9s-3.43,1.66-4.12,4.47c-4.61-.53-8.35-6.58-8.35-6.58C4249,709.05,4253.15,709.82,4257.34,714.9Z" transform="translate(5154.37 5110.3)" fill="#99321a"/>
          </g>
          <g>
            <path d="M4253.87,772.11s17.42,1,27.91-22.5c0,0,7.37,9.45,15.34,14.79,4.3,2.88,6.5,4.23,6.12,5.84a1.52,1.52,0,0,0,1.46,1.9l14.37,0,.22-1-10.77-4.73-22.16-28.3a6.32,6.32,0,0,0-8.66-1.23l-20.93,15.06S4238.6,763.89,4253.87,772.11Z" transform="translate(5154.37 5110.3)" fill="#ba573c"/>
            <path d="M4275.12,760.63c-9.89,12.11-21.25,11.48-21.25,11.48-2.6-3.66,2.91-20.19,2.91-20.19l6-4.32S4267.22,760.79,4275.12,760.63Z" transform="translate(5154.37 5110.3)" fill="#99321a"/>
          </g>
          <g>
            <path d="M4257.5,707l1.9,1.75s-.48.83-1.25.71S4257.5,707,4257.5,707Z" transform="translate(5154.37 5110.3)" fill="#99321a"/>
            <path d="M4256.93,705.45c1.64,4,4.23,9,.2,10.64s-13.15-.66-14.79-4.69a7.88,7.88,0,1,1,14.59-5.95Z" transform="translate(5154.37 5110.3)" fill="#ba573c"/>
            <path d="M4257.16,711.65a1.69,1.69,0,0,1-.72-.61.18.18,0,0,1,.05-.26.17.17,0,0,1,.25.05,1.11,1.11,0,0,0,.72.51.77.77,0,0,0,.55-.14.18.18,0,0,1,.26,0,.19.19,0,0,1,0,.26,1.19,1.19,0,0,1-.83.23A1.1,1.1,0,0,1,4257.16,711.65Z" transform="translate(5154.37 5110.3)" fill="#99321a"/>
            <path d="M4255.92,706c-.25.14-.33.62-.42,1.24a2.33,2.33,0,0,1,1.24-.69h0C4256.62,706.2,4256.12,705.85,4255.92,706Z" transform="translate(5154.37 5110.3)"/>
            <path d="M4258.11,700.46s-2.1,5-8.67,9.84c0,0,1.36,3.48.4,3.67a6.58,6.58,0,0,1-4.22,2.57c-5.54,1.14-7.71-7.36-3.53-12.23S4256,695.11,4258.11,700.46Z" transform="translate(5154.37 5110.3)"/>
            <path d="M4249.84,714s-1.4-3.3-3.47-2.73-.31,5.27,2.81,5.06C4251,716.18,4249.84,714,4249.84,714Z" transform="translate(5154.37 5110.3)" fill="#ba573c"/>
            <g>
              <path d="M4248.7,715l0,0a.19.19,0,0,1-.05-.26c.39-.61,0-1.47-.51-2s-1-.81-1.26-.69c-.64.3-.41,1.18-.4,1.21a.19.19,0,1,1-.36.1,1.4,1.4,0,0,1,.6-1.65c.49-.23,1.21.23,1.69.78a2.17,2.17,0,0,1,.55,2.46A.18.18,0,0,1,4248.7,715Z" transform="translate(5154.37 5110.3)" fill="#99321a"/>
              <path d="M4247.68,713.76a.21.21,0,0,1-.11-.13,1.24,1.24,0,0,1,.41-1.34.18.18,0,0,1,.26.06.19.19,0,0,1-.06.25c-.43.27-.25.93-.25.93a.19.19,0,0,1-.13.23Z" transform="translate(5154.37 5110.3)" fill="#99321a"/>
            </g>
            <path d="M4256.17,708.51a.18.18,0,0,1-.11-.22.19.19,0,0,1,.23-.13.53.53,0,0,0,.46,0,.55.55,0,0,0,.14-.38.2.2,0,0,1,.18-.2.19.19,0,0,1,.19.18.89.89,0,0,1-.28.69.84.84,0,0,1-.79.08Z" transform="translate(5154.37 5110.3)"/>
          </g>
          <g>
            <path d="M4244.06,722.26s6.53-3.71,10.67,1.44c4.56,5.65,2,28.22,2,28.22l3.78,6.52s1.29,13.14-7,13.68c-20.66,1.34-19.37-12.84-19.37-20.2S4234.58,729.23,4244.06,722.26Z" transform="translate(5154.37 5110.3)" fill="#ba573c"/>
            <path d="M4256.78,751.92c-9.55-5.34-12.78-9.41-13.73-13,1.54-2.8,10.75-3.52,14.37-2.72A127.63,127.63,0,0,1,4256.78,751.92Z" transform="translate(5154.37 5110.3)" fill="#99321a"/>
          </g>
          <g>
            <path d="M4262.78,747.6s3.7,14.52,12.15,18.68c0,0-10.12,5.83-21.06,5.83s-13.35.08-17.68-6.75c0,0,12.38-.49,20.58-13.44Z" transform="translate(5154.37 5110.3)" fill="#bc180f"/>
            <g clip-path="url(#clip-path)">
              <path d="M4245.53,766.39c-.63,0-1,0-1,0a.49.49,0,0,1-.44-.52.48.48,0,0,1,.52-.45c.11,0,11.44.78,24.38-7.18a.48.48,0,0,1,.66.16.48.48,0,0,1-.15.67A47.28,47.28,0,0,1,4245.53,766.39Z" transform="translate(5154.37 5110.3)" fill="#fff"/>
              <path d="M4248.88,762.13a8.63,8.63,0,0,1-2.53-.28.5.5,0,0,1-.31-.62.49.49,0,0,1,.62-.3c.09,0,6.22,1.86,20.8-5.62a.47.47,0,0,1,.65.21.48.48,0,0,1-.21.65C4258.05,761.22,4252,762.13,4248.88,762.13Z" transform="translate(5154.37 5110.3)" fill="#fff"/>
            </g>
            <path d="M4240.61,770.37a15.42,15.42,0,0,1-4.42-5s12.38-.49,20.59-13.43C4256.78,751.92,4258.5,763.62,4240.61,770.37Z" transform="translate(5154.37 5110.3)" fill="#ffa643"/>
            <path d="M4236.19,765.6a.26.26,0,0,1-.25-.24.25.25,0,0,1,.24-.25c.12,0,12.35-.64,20.39-13.32a.24.24,0,0,1,.34-.08.25.25,0,0,1,.07.34c-8.18,12.9-20.66,13.54-20.78,13.55Z" transform="translate(5154.37 5110.3)" fill="#bc180f"/>
          </g>
          <g>
            <path d="M4242.07,728.63s3.86-4.38,9.2-1.89,14.42,15,14.42,15l21.52-2.51s1.74-.58,4.9.91c2.79,1.32.73,6.28.73,6.28l-28.42,6.29a3.8,3.8,0,0,1-2.85-.48c-4.28-2.66-17.51-11.06-19.5-14.48C4239.69,733.61,4242.07,728.63,4242.07,728.63Z" transform="translate(5154.37 5110.3)" fill="#ba573c"/>
            <path d="M4265,745.66h-.05a.25.25,0,0,1-.19-.28l.58-3-3.13,3.16a.23.23,0,0,1-.34,0,.25.25,0,0,1,0-.34l3.69-3.73a.24.24,0,0,1,.28,0,.24.24,0,0,1,.13.26l-.73,3.73A.24.24,0,0,1,4265,745.66Z" transform="translate(5154.37 5110.3)" fill="#99321a"/>
            <path d="M4266.24,752.51a.24.24,0,0,1-.24-.19.24.24,0,0,1,.18-.29l26.61-5.89a.24.24,0,0,1,.11.47l-26.61,5.89Z" transform="translate(5154.37 5110.3)" fill="#99321a"/>
            <path d="M4259,733.72a.25.25,0,0,1-.19-.09,36.83,36.83,0,0,0-6.83-6.22.24.24,0,0,1-.07-.34.24.24,0,0,1,.33-.07,37.49,37.49,0,0,1,6.94,6.32.23.23,0,0,1,0,.34A.22.22,0,0,1,4259,733.72Z" transform="translate(5154.37 5110.3)" fill="#99321a"/>
            <path d="M4279.4,740.34a.24.24,0,0,1-.24-.22.24.24,0,0,1,.21-.27l7.82-.91a.24.24,0,0,1,.26.21.23.23,0,0,1-.21.27l-7.81.91Z" transform="translate(5154.37 5110.3)" fill="#99321a"/>
          </g>
        </g>
        <g>
          <path d="M4211.4,771.06a92.35,92.35,0,0,1,18.5,0h148.85s30-4.63,37.12-2.64l-37.67,6.17H4220.48Z" transform="translate(5154.37 5110.3)" fill="#ffa643"/>
          <path d="M4211.39,771.06c-2.45,0-3.1,2.52-.82,3.19a49.47,49.47,0,0,0,13.82,2h153.93l38.07-5a1.61,1.61,0,0,0,1.61-1.38h0c0-.85-1-1.5-2.13-1.38l-39.1,4.92H4222.24c-3.82,0-10.84-2.28-10.84-2.28Z" transform="translate(5154.37 5110.3)" fill="#00508d"/>
        </g>
      </g>
      <g>
        <path d="M2085.34-2628.78v181.65a19.91,19.91,0,0,0-5.09-5.5,14.15,14.15,0,0,1-4.75-6.34c-.49-1.29-.88-2.61-1.25-3.94-.59-2.1-1.1-4.23-1.71-6.33a20.34,20.34,0,0,0-6-9,25.21,25.21,0,0,0-6.21-4.24c-1.3-.65-2.54-1.43-3.79-2.18a15.73,15.73,0,0,1-5.66-5.54c-1.47-2.51-3.13-4.91-4.06-7.72a13.67,13.67,0,0,0-2.65-5.17,16.72,16.72,0,0,0-8.4-5,5.89,5.89,0,0,0-3.52-.23,83.32,83.32,0,0,0-8.59,1.62,8.19,8.19,0,0,0-4.12,2.44,14.79,14.79,0,0,0-3.82,6.69,41.38,41.38,0,0,0-1.55,8.1c-.24,3.84-.85,7.56-3.1,10.83a6.4,6.4,0,0,0-.43.87,23.14,23.14,0,0,1-8.14,9.16c-2.83,1.89-5.64,3.82-8.57,5.55-4.2,2.48-8,5.52-12,8.34a9.63,9.63,0,0,0-2,1.81c-2.59,3.22-5.27,6.38-7.64,9.76a81.28,81.28,0,0,0-7,12.26,22.71,22.71,0,0,0-2.29,10.34c0,2.1,0,4.21.09,6.32a10.59,10.59,0,0,1-1.35,5.6,28.61,28.61,0,0,1-2.92,4.47,111.17,111.17,0,0,0-8,10.72,36,36,0,0,1-5.31,6.63c-1.21,1.2-2.33,2.49-3.46,3.76a62.48,62.48,0,0,0-12.07,19c-.79,2-1.53,4.1-2.41,6.1a58.69,58.69,0,0,0-3.25,9.16c-.26,1-.61,2-1,3a73.35,73.35,0,0,1-7.89,15.58c-2.58,3.93-5.09,7.9-7.65,11.84a6.2,6.2,0,0,1-.84.86c-1,0-2-.08-2.92-.08l-212.31.1a67.5,67.5,0,0,0-4.7-5.57c-1.09-1.09-2.1-2.25-3.17-3.36a13.42,13.42,0,0,1-2.64-4,24.63,24.63,0,0,0-1.52-3,43.61,43.61,0,0,1-4.24-9.53,28.56,28.56,0,0,0-5.33-9.74c-3-3.53-6.32-6.53-10.93-7.74a1.13,1.13,0,0,0-1.06-.34c-1.66-.63-3.33-1.25-5-1.89a16.51,16.51,0,0,0-3.7-1.14,1.71,1.71,0,0,0-1.52-.39c-1.7-.76-3.39-1.54-5.11-2.25a17.25,17.25,0,0,1-6.91-5.62,62.21,62.21,0,0,0-4.64-5.61,26.75,26.75,0,0,1-1.86-2.25c-2.65-3.37-5-7-8.32-9.81a6.31,6.31,0,0,1-.65-.72,14.9,14.9,0,0,0-5-3.85,13.44,13.44,0,0,1-3.25-2.11,11.34,11.34,0,0,0-4.2-2.39,1.54,1.54,0,0,0-1.51-.42l-.43-.07a2,2,0,0,0-2.53,0c-2,.67-3.31,2.21-4.78,3.56,0-.81,0-1.62,0-2.43V-2625.7c0-.64,0-1.3,0-1.94s.36-1.05,1.06-1.09c1-.05,2-.05,2.92-.05Zm-297.94,44.41-.55-.06c-1.29-.15-2.57-.37-3.87-.44a51.41,51.41,0,0,0-13.78.95,51.39,51.39,0,0,0-28.51,16.57,50.77,50.77,0,0,0-12.63,29.45,48.46,48.46,0,0,0,3.75,24.28c7.38,16.77,20,27.13,38,30.95a.91.91,0,0,0,1.06.24l2.35.24a.34.34,0,0,0,.53,0,33.62,33.62,0,0,0,11.1,0,.38.38,0,0,0,.57,0c.4,0,.81,0,1.21-.06a51.56,51.56,0,0,0,16.81-5.44,51,51,0,0,0,23-24.55,50.74,50.74,0,0,0,4.07-28.26,50,50,0,0,0-6.37-18.51,51,51,0,0,0-24.23-21.67A56.29,56.29,0,0,0,1787.4-2584.37Z" transform="translate(5154.37 5110.3)" fill="#f7dbbe"/>
        <path d="M2035.8-2508.16a16.72,16.72,0,0,1,8.4,5,13.67,13.67,0,0,1,2.65,5.17c.93,2.81,2.59,5.21,4.06,7.72a15.73,15.73,0,0,0,5.66,5.54c1.25.75,2.49,1.53,3.79,2.18a25.21,25.21,0,0,1,6.21,4.24,20.34,20.34,0,0,1,6,9c.61,2.1,1.12,4.23,1.71,6.33.37,1.33.76,2.65,1.25,3.94a14.15,14.15,0,0,0,4.75,6.34,19.91,19.91,0,0,1,5.09,5.5v278.57l-1.92,0-.57,0a37.17,37.17,0,0,1-5.77.43l-1.54.08a54.93,54.93,0,0,1-6.29.46,74.2,74.2,0,0,0-7.75,0l-3.75-.24a2.06,2.06,0,0,0-1.61-.25l-3.86-.47-.56-.06c-.55-.09-1.11-.16-1.66-.26l-5-.93a1.35,1.35,0,0,0-1.15-.24l-2.26-.24a1.36,1.36,0,0,0-1.15-.26l-4.35-1-.53-.06-2.38-.37-.56-.09-2.3-.28a1.32,1.32,0,0,0-1.09-.21l-2.36-.4-1.06-.1-3.34-.38-.57-.08a13.72,13.72,0,0,1-3.32-.41l-.56-.1-1.86-.35-.59-.13-3.82-.39a3,3,0,0,0-1.52-.08l-3.34-.4-.57-.1-2.86-.44-.53-.07-2.87-.33a5.76,5.76,0,0,0-2.48-.14c-4.7-.11-9.4-.23-14.09,0l-.55,0a80.77,80.77,0,0,1-8.23.34c-1.94,0-3.88.08-5.82.13a1.41,1.41,0,0,0-1.1.1l-2.82.31-.54.1-1.9.39a1.25,1.25,0,0,0-1,.23l-1.39.26-.55.1-1.89.39a1.22,1.22,0,0,0-1,.23l-1.39.25-.54.08-1.89.41-.55.08-1.88.41-.55.08-1.89.41-.54.09-2.87.41-1,.11-2.9.43h-2.88l-3.95-.39a32.94,32.94,0,0,0-6.28-.11l-2.37-.36-.59-.18-.89-.2a1.1,1.1,0,0,0-1-.31l-1.91-.36a2.88,2.88,0,0,0-1.51-.1l-2.37-.3a1.3,1.3,0,0,0-1-.22l-1.36-.25a1.32,1.32,0,0,0-1.09-.2l-3.3-.31a3.35,3.35,0,0,0-2.05-.18,19.52,19.52,0,0,1-4.32-.39l-.56-.1-2.39-.44-.52-.05a32.71,32.71,0,0,0-5.33,0l-.56.09-1.89.38a1.24,1.24,0,0,0-1,.24l-1.38.25-.56.12-6.78,2.28-.53.16-2.86.84-.53.1-1.89.4-.54.07-1.89.41a1.23,1.23,0,0,0-1,.24l-1.39.25-.55.11-1.88.38-.55.11-1.88.38-.56.11-1.89.36a1.4,1.4,0,0,0-1,.16l-2.89.4c-1.52,0-3.06-.31-4.54.25l-2.25.18-.55.09-2.89.47h-2.88a35.52,35.52,0,0,0-5.36,0l-.54,0-2.85.45-.58,0a15.74,15.74,0,0,1-3.62.27,58.72,58.72,0,0,0-7,.15,1.49,1.49,0,0,0-1.09.15l-3.3.31-.52,0-2.89.46-.54.09a12.87,12.87,0,0,1-3.6.39h-4.62l-1.53.1-3.81.41-.56,0c-.8.08-1.6.14-2.4.23a11.79,11.79,0,0,1-4.31-.17l-.56-.1-1.37-.32-.58-.17-2.36-.42-.58,0a12,12,0,0,1-3.82-.45l-.52-.09-2.39-.41-.55-.06-1.37-.34-.55-.17a13.47,13.47,0,0,1-6.13-3.78,5.65,5.65,0,0,1-1.73-3.13c-.27-1.43-.6-2.86-.9-4.28a.59.59,0,0,0,0-1,3.88,3.88,0,0,1,0-.48,10.66,10.66,0,0,1,7.36-8.84,24.67,24.67,0,0,0,3.27-1.59c1.14-.62,2.31-1.18,3.49-1.71a51.15,51.15,0,0,0,5.64-2.82c2.28-1.36,4.36-3.11,7-3.84a3.74,3.74,0,0,0,.83-.5c2.87-1.83,5.74-3.65,8.6-5.49a10.33,10.33,0,0,1,3.11-1.33.49.49,0,0,0,.59-.15l1.79-.31a.52.52,0,0,0,.64-.17,51.33,51.33,0,0,0,9.14-3.86c1.42-.76,2.75-1.7,4.1-2.6a10,10,0,0,0,2.92-2.86,55,55,0,0,0,8.26-8.85c2-2.91,4.41-5.59,6.21-8.67a52.21,52.21,0,0,1,6.39-8.52c1.5-1.69,3.21-3.19,4.78-4.81a20.4,20.4,0,0,1,4.8-3.67,20,20,0,0,0,5.89-4.63c2-2.51,4-5.05,5.94-7.65,2.21-3,4.3-6.07,6.45-9.11a16.15,16.15,0,0,1,1.31-1.74,29.49,29.49,0,0,0,3.67-4.82c2.54-4,4.85-8.23,7-12.48,2.23-4.41,4.49-8.78,6.34-13.39a115.24,115.24,0,0,1,5.81-12.82,10.73,10.73,0,0,0,.57-1.59,6.2,6.2,0,0,0,.84-.86c2.56-3.94,5.07-7.91,7.65-11.84a73.35,73.35,0,0,0,7.89-15.58c.36-1,.71-2,1-3a58.69,58.69,0,0,1,3.25-9.16c.88-2,1.62-4.06,2.41-6.1a62.48,62.48,0,0,1,12.07-19c1.13-1.27,2.25-2.56,3.46-3.76a36,36,0,0,0,5.31-6.63,111.17,111.17,0,0,1,8-10.72,28.61,28.61,0,0,0,2.92-4.47,10.59,10.59,0,0,0,1.35-5.6c-.08-2.11,0-4.22-.09-6.32a22.71,22.71,0,0,1,2.29-10.34,81.28,81.28,0,0,1,7-12.26c2.37-3.38,5-6.54,7.64-9.76a9.63,9.63,0,0,1,2-1.81c4-2.82,7.76-5.86,12-8.34,2.93-1.73,5.74-3.66,8.57-5.55a23.14,23.14,0,0,0,8.14-9.16,6.4,6.4,0,0,1,.43-.87c2.25-3.27,2.86-7,3.1-10.83a41.38,41.38,0,0,1,1.55-8.1,14.79,14.79,0,0,1,3.82-6.69,8.19,8.19,0,0,1,4.12-2.44,83.64,83.64,0,0,1,8.58-1.62C2033.41-2507.78,2034.61-2508,2035.8-2508.16Z" transform="translate(5154.37 5110.3)" fill="#d58330"/>
        <path d="M1890.1-2174.4l1.38-.25a1,1,0,0,0,1-.24l1.89-.38a.42.42,0,0,0,.56-.09,32.71,32.71,0,0,1,5.33,0,.32.32,0,0,0,.52.05l2.39.44a.42.42,0,0,0,.56.1,19.52,19.52,0,0,0,4.32.39,2,2,0,0,0,2.05.18l3.3.31a1,1,0,0,0,1.09.2l1.36.25a.89.89,0,0,0,1,.22l2.37.3a1.11,1.11,0,0,0,1.51.1l1.91.36a1,1,0,0,0,1,.31l.89.2a.49.49,0,0,0,.59.18l2.37.36a13.36,13.36,0,0,0,6.28.11l3.95.39a2.51,2.51,0,0,0,2.88,0l2.9-.43a.67.67,0,0,0,1-.11l2.87-.41a.39.39,0,0,0,.54-.09l1.89-.42a.36.36,0,0,0,.55-.07l1.88-.41a.36.36,0,0,0,.55-.08l1.89-.41a.35.35,0,0,0,.54-.08l1.39-.25a.92.92,0,0,0,1-.23l1.89-.39a.41.41,0,0,0,.55-.1l1.39-.26a.93.93,0,0,0,1-.23l1.9-.39a.4.4,0,0,0,.54-.1l2.82-.31a.88.88,0,0,0,1.1-.1c1.94-.05,3.88-.12,5.82-.13a80.77,80.77,0,0,0,8.23-.34.35.35,0,0,0,.55,0c4.69-.25,9.39-.13,14.09,0a2.32,2.32,0,0,0,2.48.14l2.87.33a.38.38,0,0,0,.53.07l2.86.44a.41.41,0,0,0,.57.1l3.34.4a1.08,1.08,0,0,0,1.52.08l3.82.39a.46.46,0,0,0,.59.13l1.86.35a.4.4,0,0,0,.56.1,13.72,13.72,0,0,0,3.32.41.41.41,0,0,0,.57.08l3.34.38a.73.73,0,0,0,1.06.1l2.36.4a1,1,0,0,0,1.09.21l2.3.28a.41.41,0,0,0,.56.09l2.38.37a.35.35,0,0,0,.53.06l4.35,1a1,1,0,0,0,1.15.26l2.26.24a1,1,0,0,0,1.15.24l5,.93c.55.1,1.11.17,1.66.26a.37.37,0,0,0,.56.06l3.86.47a1.49,1.49,0,0,0,1.61.25l3.75.24c.21.11.42.32.63.32,2.16,0,4.33,0,6.49,0,.21,0,.42-.21.63-.32a54.93,54.93,0,0,0,6.29-.46,1.15,1.15,0,0,0,1.54-.08,37.17,37.17,0,0,0,5.77-.43.37.37,0,0,0,.57,0l1.92,0V-2020H1598v-33.6l.83.06,2.43.18c4,.27,7.9.8,11.89.69a25.09,25.09,0,0,1,6.52.67,17.29,17.29,0,0,0,3.13.39q4.61.27,9.2.77a23.1,23.1,0,0,0,6.79-.2,42.08,42.08,0,0,1,7.42-1.22c3,0,6-.23,9-.37a10.59,10.59,0,0,0,1.69-.12,29.83,29.83,0,0,1,5.58-.41c2.11,0,4.22,0,6.32-.11,2.35-.1,4.71-.17,7-.48a32.18,32.18,0,0,1,5.08-.38,59.68,59.68,0,0,0,12.09-1.05,21.94,21.94,0,0,1,3.87-.36,37.13,37.13,0,0,0,8.92-1,38.7,38.7,0,0,1,9.65-1,56.11,56.11,0,0,0,6.07-.25,26.54,26.54,0,0,1,11.3,1,22.25,22.25,0,0,0,5.5.95c3.72.3,7.45.24,11.18.35a31.78,31.78,0,0,0,6.31-.35,59.34,59.34,0,0,1,11.15-.66,55.26,55.26,0,0,0,6.56-.25,24.88,24.88,0,0,1,5.59.06,24.65,24.65,0,0,0,5.82-.08,45.61,45.61,0,0,1,6.28-.64c2.84.05,5.68,0,8.52,0a34.4,34.4,0,0,1,5.82.35,14.9,14.9,0,0,0,5.32-.17c3.58-.67,7.22-1.08,10.77-1.88s7.06-1.79,10.64-2.49c4.61-.91,9.13-2.24,13.79-2.9s9.23-1.77,13.91-2.28a25.39,25.39,0,0,0,4.07-.66c5.4-1.5,11-2.27,16.38-3.58,3.54-.86,7.17-1.31,10.61-2.6a11.33,11.33,0,0,1,3.06-.75c3.72-.31,7.42-.75,11.17-.7a172.32,172.32,0,0,0,17.75-.22,16.74,16.74,0,0,1,2.91.14,32.62,32.62,0,0,0,7.52-.09c2.72-.43,5.45-.84,8.19-1.1,4.69-.45,9.26-1.56,13.88-2.41a74.52,74.52,0,0,0,11.23-3.12c4.66-1.65,9.33-3.29,13.93-5.09a51.51,51.51,0,0,1,12.65-3.36,59.35,59.35,0,0,1,6.78-.53,45.45,45.45,0,0,1,5.81.53,13.26,13.26,0,0,0,3.39,0c2.17-.26,4.34-.49,6.51-.75a44,44,0,0,0,9.48-2.08c3.74-1.33,7.53-2.53,11.28-3.84a19.7,19.7,0,0,0,4.9-2.1,27.58,27.58,0,0,1,4.67-2.58c2.58-1.12,4.87-2.63,5.71-5.58a8,8,0,0,1,.55-1.09,3,3,0,0,0-.92-4.11c-1.14-.9-2.39-1.67-3.61-2.47a3.4,3.4,0,0,0-1.12-.44c-1.67-.35-3.35-.61-5-1-2.54-.63-5.17-.41-7.72-1a40.26,40.26,0,0,0-5.8-.57c-3.39-.27-6.77-.67-10.15-1-.89-.09-1.76-.26-2.64-.38-2-.28-4-.46-6-.83-4.46-.85-8.9-1.77-13.4-2.38a70.1,70.1,0,0,1-10.4-2.44c-3.57-1.05-7.12-2.18-10.79-2.9a67.36,67.36,0,0,0-14.21-1.74c-.64,0-1.29-.08-1.94-.13a82,82,0,0,0-11.4-.62c-1.94.1-3.88.26-5.82.31-4,.11-7.9.8-11.85,1.22-2.82.3-5.62.72-8.46.8-3.4.09-6.8.32-10.2.5a6.12,6.12,0,0,0-1.2.19c-2,.52-4.08,1-6.11,1.59a21.44,21.44,0,0,1-3.08.69c-2.1.22-4.18.53-6.27.78-3.14.37-6.28.72-9.42,1.07-2.25.25-4.53.39-6.76.73-4.42.68-8.87.9-13.32,1.18-2.1.14-4.22,0-6.32.21-4.44.39-8.87.9-13.34.94-5.84,0-11.68,0-17.4-1.46-1.41-.36-2.84-.63-4.27-.94a177,177,0,0,1-17.39-4.55,51.25,51.25,0,0,0-5.62-1.54,120.61,120.61,0,0,1-11.86-2.61,29.93,29.93,0,0,0-7.42-1.25,60.27,60.27,0,0,1-6.29-.59,71.71,71.71,0,0,0-11.62-.84c-3.09.07-6.17.32-9.22.68-4.17.49-8.26,0-12.36-.38a28.83,28.83,0,0,1-5.75-.92c-4.18-1.3-8.4-2.47-12.54-3.88a124,124,0,0,0-13.89-3.54,47.3,47.3,0,0,1-9.19-3.09,9.52,9.52,0,0,1-4.6-4.17c-.91-1.62-1.91-3.2-2.9-4.78a9.82,9.82,0,0,1-1.27-8.59c.2-.62.4-1.24.57-1.87a10.66,10.66,0,0,1,4.3-6,41.14,41.14,0,0,1,9.45-5c1.81-.7,3.66-1.32,5.45-2.08,2.32-1,4.66-1.89,7-2.65a17.31,17.31,0,0,0,4-1.85,59.23,59.23,0,0,1,9.66-4.57,26.44,26.44,0,0,1,3.2-1.13c3.3-.86,6.61-1.62,9.91-2.45s6.41-1.75,9.65-2.47a43.28,43.28,0,0,0,10.48-3.83c3.39-1.74,6.82-3.39,10.28-5,7.59-3.49,15.27-6.74,23.53-8.38a36.31,36.31,0,0,1,8.67-1,35.25,35.25,0,0,0,11.06-1.22,5.43,5.43,0,0,1,1-.19,19,19,0,0,0,4.72-1.11,22.59,22.59,0,0,1,9.31-1.4,10,10,0,0,1-2.92,2.86c-1.35.9-2.68,1.84-4.1,2.6a51.33,51.33,0,0,1-9.14,3.86l-.64.17-1.79.31-.59.15a10.33,10.33,0,0,0-3.11,1.33c-2.86,1.84-5.73,3.66-8.6,5.49a3.74,3.74,0,0,1-.83.5c-2.64.73-4.72,2.48-7,3.84a51.15,51.15,0,0,1-5.64,2.82c-1.18.53-2.35,1.09-3.49,1.71a24.67,24.67,0,0,1-3.27,1.59,10.66,10.66,0,0,0-7.36,8.84,3.88,3.88,0,0,0,0,.48.58.58,0,0,0,0,1c.3,1.42.63,2.85.9,4.28a5.65,5.65,0,0,0,1.73,3.13,13.47,13.47,0,0,0,6.13,3.78.43.43,0,0,0,.55.17l1.37.34a.36.36,0,0,0,.55.06l2.39.41a.37.37,0,0,0,.52.09,12,12,0,0,0,3.82.45.38.38,0,0,0,.58,0l2.36.42a.47.47,0,0,0,.58.17l1.37.32a.41.41,0,0,0,.56.1,11.79,11.79,0,0,0,4.31.17c.8-.09,1.6-.15,2.4-.23a.36.36,0,0,0,.56,0l3.81-.41a1.15,1.15,0,0,0,1.53-.1h4.62a12.87,12.87,0,0,0,3.6-.39.39.39,0,0,0,.54-.09l2.89-.46a.33.33,0,0,0,.52,0l3.3-.31a.88.88,0,0,0,1.09-.15,58.72,58.72,0,0,1,7-.15,15.74,15.74,0,0,0,3.62-.27.38.38,0,0,0,.58,0l2.85-.45a.35.35,0,0,0,.54,0,35.52,35.52,0,0,1,5.36,0,2.51,2.51,0,0,0,2.88,0l2.89-.47a.4.4,0,0,0,.55-.09l2.25-.18c1.52.13,3.06.51,4.54-.25l2.89-.4a.82.82,0,0,0,1-.16l1.89-.36a.42.42,0,0,0,.56-.11l1.88-.38a.4.4,0,0,0,.55-.11l1.88-.38a.4.4,0,0,0,.55-.11l1.39-.25a1,1,0,0,0,1-.24l1.89-.41a.36.36,0,0,0,.54-.07l1.89-.4a.37.37,0,0,0,.53-.1l2.86-.84a.39.39,0,0,0,.53-.16l6.78-2.28A.41.41,0,0,0,1890.1-2174.4Z" transform="translate(5154.37 5110.3)" fill="#f7e6d4"/>
        <path d="M2085.34-2628.78h-482.4c-1,0-2,0-2.92.05-.7,0-1,.37-1.06,1.09s0,1.3,0,1.94v227.38c0,.81,0,1.62,0,2.43l-.3.84-.72,0v-234.24h485.2c.73,0,1.46,0,2.19,0Z" transform="translate(5154.37 5110.3)" fill="#faebd9"/>
        <path d="M1598.78-2053.57l-.83-.06v-241.06h.73a13.29,13.29,0,0,1,.16,3.39q0,117.28,0,234.55C1598.84-2055.68,1598.8-2054.63,1598.78-2053.57Z" transform="translate(5154.37 5110.3)" fill="#f9d2a6"/>
        <path d="M1598.68-2294.68H1598V-2395l.72,0c0,1.14.13,2.27.13,3.4q0,46.82,0,93.64c0,1,0,1.94,0,2.92a1,1,0,0,0,0,.34Z" transform="translate(5154.37 5110.3)" fill="#d6b492"/>
        <path d="M1598.78-2053.57c0-1.06.06-2.11.06-3.17q0-117.27,0-234.55a13.29,13.29,0,0,0-.16-3.39l.2-.06a1.16,1.16,0,0,0,1-.34l5.88-1.09,5.86,0,1.44.08a2.53,2.53,0,0,0,1.81.44l5,0c1.82-.14,3.54.55,5.34.57a2.19,2.19,0,0,0,1.56.44l4.29,0a15.36,15.36,0,0,1,4.77.6,24.87,24.87,0,0,0,6.91.93,1.69,1.69,0,0,0,1.11.41c2.19,0,4.37,0,6.55,0a1.69,1.69,0,0,0,1.11-.43,34.63,34.63,0,0,0,10.75-1.51c.23-.07.48-.11.71-.17a24.31,24.31,0,0,1,6.47-.8c3.4,0,6.8,0,10.19,0,2.27,0,4.48-.64,6.76-.51a25.4,25.4,0,0,0,6.93-1.05,3.81,3.81,0,0,0,2.88-2.69,9.35,9.35,0,0,0,.54-2.11c.23-3.08.22-6.16-1.11-9-.57-1.25-1.28-2.44-2-3.63-.56-1-1.17-1.94-1.76-2.9l212.31-.1c1,0,2,0,2.92.08a10.73,10.73,0,0,1-.57,1.59,115.24,115.24,0,0,0-5.81,12.82c-1.85,4.61-4.11,9-6.34,13.39-2.16,4.25-4.47,8.44-7,12.48a29.49,29.49,0,0,1-3.67,4.82,16.15,16.15,0,0,0-1.31,1.74c-2.15,3-4.24,6.11-6.45,9.11-1.91,2.6-3.92,5.14-5.94,7.65a20,20,0,0,1-5.89,4.63,20.4,20.4,0,0,0-4.8,3.67c-1.57,1.62-3.28,3.12-4.78,4.81a52.21,52.21,0,0,0-6.39,8.52c-1.8,3.08-4.17,5.76-6.21,8.67a55,55,0,0,1-8.26,8.85,22.59,22.59,0,0,0-9.31,1.4,19,19,0,0,1-4.72,1.11,5.43,5.43,0,0,0-1,.19,35.25,35.25,0,0,1-11.06,1.22,36.31,36.31,0,0,0-8.67,1c-8.26,1.64-15.94,4.89-23.53,8.38-3.46,1.6-6.89,3.25-10.28,5a43.28,43.28,0,0,1-10.48,3.83c-3.24.72-6.43,1.66-9.65,2.47s-6.61,1.59-9.91,2.45a26.44,26.44,0,0,0-3.2,1.13,59.23,59.23,0,0,0-9.66,4.57,17.31,17.31,0,0,1-4,1.85c-2.39.76-4.73,1.67-7,2.65-1.79.76-3.64,1.38-5.45,2.08a41.14,41.14,0,0,0-9.45,5,10.66,10.66,0,0,0-4.3,6c-.17.63-.37,1.25-.57,1.87a9.82,9.82,0,0,0,1.27,8.59c1,1.58,2,3.16,2.9,4.78a9.52,9.52,0,0,0,4.6,4.17,47.3,47.3,0,0,0,9.19,3.09,124,124,0,0,1,13.89,3.54c4.14,1.41,8.36,2.58,12.54,3.88a28.83,28.83,0,0,0,5.75.92c4.1.39,8.19.87,12.36.38,3-.36,6.13-.61,9.22-.68a71.71,71.71,0,0,1,11.62.84,60.27,60.27,0,0,0,6.29.59,29.93,29.93,0,0,1,7.42,1.25,120.61,120.61,0,0,0,11.86,2.61,51.25,51.25,0,0,1,5.62,1.54,177,177,0,0,0,17.39,4.55c1.43.31,2.86.58,4.27.94,5.72,1.44,11.56,1.51,17.4,1.46,4.47,0,8.9-.55,13.34-.94,2.1-.19,4.22-.07,6.32-.21,4.45-.28,8.9-.5,13.32-1.18,2.23-.34,4.51-.48,6.76-.73,3.14-.35,6.28-.7,9.42-1.07,2.09-.25,4.17-.56,6.27-.78a21.44,21.44,0,0,0,3.08-.69c2-.55,4.07-1.07,6.11-1.59a6.12,6.12,0,0,1,1.2-.19c3.4-.18,6.8-.41,10.2-.5,2.84-.08,5.64-.5,8.46-.8,4-.42,7.87-1.11,11.85-1.22,1.94-.05,3.88-.21,5.82-.31a82,82,0,0,1,11.4.62c.65,0,1.3.14,1.94.13a67.36,67.36,0,0,1,14.21,1.74c3.67.72,7.22,1.85,10.79,2.9a70.1,70.1,0,0,0,10.4,2.44c4.5.61,8.94,1.53,13.4,2.38,2,.37,4,.55,6,.83.88.12,1.75.29,2.64.38,3.38.37,6.76.77,10.15,1a40.26,40.26,0,0,1,5.8.57c2.55.56,5.18.34,7.72,1,1.65.41,3.33.67,5,1a3.4,3.4,0,0,1,1.12.44c1.22.8,2.47,1.57,3.61,2.47a3,3,0,0,1,.92,4.11,8,8,0,0,0-.55,1.09c-.84,3-3.13,4.46-5.71,5.58a27.58,27.58,0,0,0-4.67,2.58,19.7,19.7,0,0,1-4.9,2.1c-3.75,1.31-7.54,2.51-11.28,3.84a44,44,0,0,1-9.48,2.08c-2.17.26-4.34.49-6.51.75a13.26,13.26,0,0,1-3.39,0,45.45,45.45,0,0,0-5.81-.53,59.35,59.35,0,0,0-6.78.53,51.51,51.51,0,0,0-12.65,3.36c-4.6,1.8-9.27,3.44-13.93,5.09a74.52,74.52,0,0,1-11.23,3.12c-4.62.85-9.19,2-13.88,2.41-2.74.26-5.47.67-8.19,1.1a32.62,32.62,0,0,1-7.52.09,16.74,16.74,0,0,0-2.91-.14,172.32,172.32,0,0,1-17.75.22c-3.75-.05-7.45.39-11.17.7a11.33,11.33,0,0,0-3.06.75c-3.44,1.29-7.07,1.74-10.61,2.6-5.43,1.31-11,2.08-16.38,3.58a25.39,25.39,0,0,1-4.07.66c-4.68.51-9.26,1.63-13.91,2.28s-9.18,2-13.79,2.9c-3.58.7-7.09,1.69-10.64,2.49s-7.19,1.21-10.77,1.88a14.9,14.9,0,0,1-5.32.17,34.4,34.4,0,0,0-5.82-.35c-2.84,0-5.68.06-8.52,0a45.61,45.61,0,0,0-6.28.64,24.65,24.65,0,0,1-5.82.08,24.88,24.88,0,0,0-5.59-.06,55.26,55.26,0,0,1-6.56.25,59.34,59.34,0,0,0-11.15.66,31.78,31.78,0,0,1-6.31.35c-3.73-.11-7.46,0-11.18-.35a22.25,22.25,0,0,1-5.5-.95,26.54,26.54,0,0,0-11.3-1,56.11,56.11,0,0,1-6.07.25,38.7,38.7,0,0,0-9.65,1,37.13,37.13,0,0,1-8.92,1,21.94,21.94,0,0,0-3.87.36,59.68,59.68,0,0,1-12.09,1.05,32.18,32.18,0,0,0-5.08.38c-2.33.31-4.69.38-7,.48-2.1.09-4.21.07-6.32.11a29.83,29.83,0,0,0-5.58.41,10.59,10.59,0,0,1-1.69.12c-3,.14-6,.34-9,.37a42.08,42.08,0,0,0-7.42,1.22,23.1,23.1,0,0,1-6.79.2q-4.59-.49-9.2-.77a17.29,17.29,0,0,1-3.13-.39,25.09,25.09,0,0,0-6.52-.67c-4,.11-7.93-.42-11.89-.69Z" transform="translate(5154.37 5110.3)" fill="#f3a042"/>
        <path d="M1784.86-2482.14a33.62,33.62,0,0,1-11.1,0l-.53,0-2.35-.23a1.3,1.3,0,0,0-1.06-.25c-18-3.82-30.63-14.18-38-30.95a48.46,48.46,0,0,1-3.75-24.28,50.77,50.77,0,0,1,12.63-29.45,51.39,51.39,0,0,1,28.51-16.57,51.41,51.41,0,0,1,13.78-.95c1.3.07,2.58.29,3.87.44a.34.34,0,0,0,.55.06,56.29,56.29,0,0,1,12.56,3.71,51,51,0,0,1,24.23,21.67,50,50,0,0,1,6.37,18.51,50.74,50.74,0,0,1-4.07,28.26,51,51,0,0,1-23,24.55,51.56,51.56,0,0,1-16.81,5.44c-.4.06-.81,0-1.21.06Z" transform="translate(5154.37 5110.3)" fill="#d58330"/>
        <path d="M1625.21-2295.13c-1.8,0-3.52-.71-5.34-.57a2.21,2.21,0,0,0-1.57-.43l-5.26,0-1.44-.08a9.53,9.53,0,0,0-5.86,0l-5.88,1.09h-1c0-1,0-1.95,0-2.92q0-46.81,0-93.64c0-1.13-.08-2.26-.13-3.4l.3-.84c1.47-1.35,2.81-2.89,4.78-3.56l2.53,0,.43.07a1.74,1.74,0,0,0,1.51.42,11.34,11.34,0,0,1,4.2,2.39,13.44,13.44,0,0,0,3.25,2.11,14.9,14.9,0,0,1,5,3.85,6.31,6.31,0,0,0,.65.72c3.3,2.82,5.67,6.44,8.32,9.81a26.75,26.75,0,0,0,1.86,2.25,62.21,62.21,0,0,1,4.64,5.61,17.25,17.25,0,0,0,6.91,5.62c1.72.71,3.41,1.49,5.11,2.25a1.58,1.58,0,0,0,1.52.39,16.51,16.51,0,0,1,3.7,1.14c1.66.64,3.33,1.26,5,1.89a1,1,0,0,0,1.06.34c4.61,1.21,8,4.21,10.93,7.74a28.56,28.56,0,0,1,5.33,9.74,43.61,43.61,0,0,0,4.24,9.53,24.63,24.63,0,0,1,1.52,3,13.42,13.42,0,0,0,2.64,4c1.07,1.11,2.08,2.27,3.17,3.36a67.5,67.5,0,0,1,4.7,5.57c.59,1,1.2,1.92,1.76,2.9.67,1.19,1.38,2.38,2,3.63,1.33,2.88,1.34,6,1.11,9a9.35,9.35,0,0,1-.54,2.11,3.81,3.81,0,0,1-2.88,2.69,25.4,25.4,0,0,1-6.93,1.05c-2.28-.13-4.49.54-6.76.51-3.39,0-6.79,0-10.19,0a24.31,24.31,0,0,0-6.47.8c-.23.06-.48.1-.71.17a34.33,34.33,0,0,1-10.75,1.5l-8.77,0a24.87,24.87,0,0,1-6.91-.93,15.36,15.36,0,0,0-4.77-.6,2.17,2.17,0,0,0-1.56-.43Z" transform="translate(5154.37 5110.3)" fill="#a76018"/>
        <path d="M2035.8-2508.16c-1.19.11-2.39.38-3.53-.23A5.91,5.91,0,0,1,2035.8-2508.16Z" transform="translate(5154.37 5110.3)" fill="#d79f5e"/>
        <path d="M1606.28-2399.47l-2.53,0A2,2,0,0,1,1606.28-2399.47Z" transform="translate(5154.37 5110.3)" fill="#d79f5e"/>
        <path d="M1649.64-2364a1.58,1.58,0,0,1-1.52-.39A1.71,1.71,0,0,1,1649.64-2364Z" transform="translate(5154.37 5110.3)" fill="#d79f5e"/>
        <path d="M1608.22-2399a1.74,1.74,0,0,1-1.51-.42A1.54,1.54,0,0,1,1608.22-2399Z" transform="translate(5154.37 5110.3)" fill="#d79f5e"/>
        <path d="M1659.39-2360.61a1,1,0,0,1-1.06-.34A1.13,1.13,0,0,1,1659.39-2360.61Z" transform="translate(5154.37 5110.3)" fill="#d79f5e"/>
        <path d="M1769.82-2482.67a1.3,1.3,0,0,1,1.06.25A.93.93,0,0,1,1769.82-2482.67Z" transform="translate(5154.37 5110.3)" fill="#dbb27d"/>
        <path d="M1787.4-2584.37a.34.34,0,0,1-.55-.06Z" transform="translate(5154.37 5110.3)" fill="#f3b56f"/>
        <path d="M1784.86-2482.14l.57,0A.38.38,0,0,1,1784.86-2482.14Z" transform="translate(5154.37 5110.3)" fill="#d79f5e"/>
        <path d="M1773.23-2482.19l.53,0A.34.34,0,0,1,1773.23-2482.19Z" transform="translate(5154.37 5110.3)" fill="#d79f5e"/>
        <path d="M2069.25-2167.52c-.21.11-.42.32-.63.32-2.16,0-4.33,0-6.49,0-.21,0-.42-.21-.63-.32A74.2,74.2,0,0,1,2069.25-2167.52Z" transform="translate(5154.37 5110.3)" fill="#f7dbbe"/>
        <path d="M1933.88-2171.3a13.36,13.36,0,0,1-6.28-.11A32.94,32.94,0,0,1,1933.88-2171.3Z" transform="translate(5154.37 5110.3)" fill="#f9d2a6"/>
        <path d="M1860.86-2167.52c-1.48.76-3,.38-4.54.25C1857.8-2167.83,1859.34-2167.55,1860.86-2167.52Z" transform="translate(5154.37 5110.3)" fill="#f9d2a6"/>
        <path d="M1940.71-2170.92a2.51,2.51,0,0,1-2.88,0Z" transform="translate(5154.37 5110.3)" fill="#f9d2a6"/>
        <path d="M1850.63-2166.53a2.51,2.51,0,0,1-2.88,0Z" transform="translate(5154.37 5110.3)" fill="#f9d2a6"/>
        <path d="M2000.17-2176.19a2.32,2.32,0,0,1-2.48-.14A5.76,5.76,0,0,1,2000.17-2176.19Z" transform="translate(5154.37 5110.3)" fill="#d6b492"/>
        <path d="M1775.2-2177.33a.58.58,0,0,1,0-1A.59.59,0,0,1,1775.2-2177.33Z" transform="translate(5154.37 5110.3)" fill="#dbb27d"/>
        <path d="M1910.15-2174.2a2,2,0,0,1-2.05-.18A3.35,3.35,0,0,1,1910.15-2174.2Z" transform="translate(5154.37 5110.3)" fill="#d6b492"/>
        <path d="M2077.08-2168.06a1.15,1.15,0,0,1-1.54.08Z" transform="translate(5154.37 5110.3)" fill="#dbb27d"/>
        <path d="M2057.75-2167.76a1.49,1.49,0,0,1-1.61-.25A2.06,2.06,0,0,1,2057.75-2167.76Z" transform="translate(5154.37 5110.3)" fill="#f9d2a6"/>
        <path d="M2011.86-2174.76a1.09,1.09,0,0,1-1.52-.09A2.91,2.91,0,0,1,2011.86-2174.76Z" transform="translate(5154.37 5110.3)" fill="#d6b492"/>
        <path d="M1811.22-2164.17a1.15,1.15,0,0,1-1.53.1Z" transform="translate(5154.37 5110.3)" fill="#dbb27d"/>
        <path d="M1920.81-2172.82a1.11,1.11,0,0,1-1.51-.1A2.88,2.88,0,0,1,1920.81-2172.82Z" transform="translate(5154.37 5110.3)" fill="#d6b492"/>
        <path d="M1969-2175.79a.88.88,0,0,1-1.1.1A1.41,1.41,0,0,1,1969-2175.79Z" transform="translate(5154.37 5110.3)" fill="#d6b492"/>
        <path d="M1864.77-2168.08a.82.82,0,0,1-1,.16A1.4,1.4,0,0,1,1864.77-2168.08Z" transform="translate(5154.37 5110.3)" fill="#dbb27d"/>
        <path d="M1827.78-2165.61a.88.88,0,0,1-1.09.15A1.49,1.49,0,0,1,1827.78-2165.61Z" transform="translate(5154.37 5110.3)" fill="#d6b492"/>
        <path d="M2045.11-2169.73a1,1,0,0,1-1.15-.24A1.35,1.35,0,0,1,2045.11-2169.73Z" transform="translate(5154.37 5110.3)" fill="#f9d2a6"/>
        <path d="M1892.53-2174.89a1,1,0,0,1-1,.24A1.24,1.24,0,0,1,1892.53-2174.89Z" transform="translate(5154.37 5110.3)" fill="#dbb27d"/>
        <path d="M1874.52-2170a1,1,0,0,1-1,.24A1.23,1.23,0,0,1,1874.52-2170Z" transform="translate(5154.37 5110.3)" fill="#dbb27d"/>
        <path d="M1962.64-2174.89a.93.93,0,0,1-1,.23A1.25,1.25,0,0,1,1962.64-2174.89Z" transform="translate(5154.37 5110.3)" fill="#dbb27d"/>
        <path d="M2041.7-2170.21a1,1,0,0,1-1.15-.26A1.36,1.36,0,0,1,2041.7-2170.21Z" transform="translate(5154.37 5110.3)" fill="#f9d2a6"/>
        <path d="M1944.63-2171.46a.67.67,0,0,1-1,.11Z" transform="translate(5154.37 5110.3)" fill="#d6b492"/>
        <path d="M1914.54-2173.69a1,1,0,0,1-1.09-.2A1.32,1.32,0,0,1,1914.54-2173.69Z" transform="translate(5154.37 5110.3)" fill="#d6b492"/>
        <path d="M1957.77-2173.91a.92.92,0,0,1-1,.23A1.22,1.22,0,0,1,1957.77-2173.91Z" transform="translate(5154.37 5110.3)" fill="#dbb27d"/>
        <path d="M1916.93-2173.22a.89.89,0,0,1-1-.22A1.3,1.3,0,0,1,1916.93-2173.22Z" transform="translate(5154.37 5110.3)" fill="#dbb27d"/>
        <path d="M2030.43-2172.22a1,1,0,0,1-1.09-.21A1.32,1.32,0,0,1,2030.43-2172.22Z" transform="translate(5154.37 5110.3)" fill="#d6b492"/>
        <path d="M1923.75-2172.15a1,1,0,0,1-1-.31A1.1,1.1,0,0,1,1923.75-2172.15Z" transform="translate(5154.37 5110.3)" fill="#dbb27d"/>
        <path d="M2027-2172.83a.73.73,0,0,1-1.06-.1Z" transform="translate(5154.37 5110.3)" fill="#dbb27d"/>
        <path d="M1952.91-2172.94a.36.36,0,0,1-.55.08Z" transform="translate(5154.37 5110.3)" fill="#dbb27d"/>
        <path d="M1950.48-2172.45a.36.36,0,0,1-.55.07Z" transform="translate(5154.37 5110.3)" fill="#dbb27d"/>
        <path d="M1955.34-2173.43a.35.35,0,0,1-.54.08Z" transform="translate(5154.37 5110.3)" fill="#dbb27d"/>
        <path d="M1882.76-2172a.39.39,0,0,1-.53.16Z" transform="translate(5154.37 5110.3)" fill="#dbb27d"/>
        <path d="M1925.23-2171.77a.49.49,0,0,1-.59-.18Z" transform="translate(5154.37 5110.3)" fill="#dbb27d"/>
        <path d="M1948-2172a.39.39,0,0,1-.54.09Z" transform="translate(5154.37 5110.3)" fill="#dbb27d"/>
        <path d="M2033.29-2171.85a.41.41,0,0,1-.56-.09Z" transform="translate(5154.37 5110.3)" fill="#dbb27d"/>
        <path d="M2018.69-2173.8a.4.4,0,0,1-.56-.1Z" transform="translate(5154.37 5110.3)" fill="#dbb27d"/>
        <path d="M2016.27-2174.25a.46.46,0,0,1-.59-.13Z" transform="translate(5154.37 5110.3)" fill="#dbb27d"/>
        <path d="M2036.2-2171.42a.35.35,0,0,1-.53-.06Z" transform="translate(5154.37 5110.3)" fill="#dbb27d"/>
        <path d="M1879.37-2171a.37.37,0,0,1-.53.1Z" transform="translate(5154.37 5110.3)" fill="#dbb27d"/>
        <path d="M1960.21-2174.4a.41.41,0,0,1-.55.1Z" transform="translate(5154.37 5110.3)" fill="#dbb27d"/>
        <path d="M1877-2170.5a.36.36,0,0,1-.54.07Z" transform="translate(5154.37 5110.3)" fill="#dbb27d"/>
        <path d="M1890.1-2174.4a.41.41,0,0,1-.56.12Z" transform="translate(5154.37 5110.3)" fill="#dbb27d"/>
        <path d="M1903.78-2174.77a.42.42,0,0,1-.56-.1Z" transform="translate(5154.37 5110.3)" fill="#dbb27d"/>
        <path d="M2007-2175.25a.41.41,0,0,1-.57-.1Z" transform="translate(5154.37 5110.3)" fill="#dbb27d"/>
        <path d="M1872.08-2169.53a.4.4,0,0,1-.55.11Z" transform="translate(5154.37 5110.3)" fill="#dbb27d"/>
        <path d="M1869.65-2169a.4.4,0,0,1-.55.11Z" transform="translate(5154.37 5110.3)" fill="#dbb27d"/>
        <path d="M1867.22-2168.55a.42.42,0,0,1-.56.11Z" transform="translate(5154.37 5110.3)" fill="#dbb27d"/>
        <path d="M2052.28-2168.48a.37.37,0,0,1-.56-.06Z" transform="translate(5154.37 5110.3)" fill="#dbb27d"/>
        <path d="M2083.42-2168.53a.37.37,0,0,1-.57,0Z" transform="translate(5154.37 5110.3)" fill="#dbb27d"/>
        <path d="M1965.08-2175.38a.4.4,0,0,1-.54.1Z" transform="translate(5154.37 5110.3)" fill="#dbb27d"/>
        <path d="M1900.83-2175.31a.32.32,0,0,1-.52-.05Z" transform="translate(5154.37 5110.3)" fill="#d6b492"/>
        <path d="M1895-2175.36a.42.42,0,0,1-.56.09Z" transform="translate(5154.37 5110.3)" fill="#dbb27d"/>
        <path d="M2003.57-2175.79a.38.38,0,0,1-.53-.07Z" transform="translate(5154.37 5110.3)" fill="#dbb27d"/>
        <path d="M1983.6-2176.31a.35.35,0,0,1-.55,0Z" transform="translate(5154.37 5110.3)" fill="#d6b492"/>
        <path d="M1814.54-2204.9l.59-.15A.49.49,0,0,1,1814.54-2204.9Z" transform="translate(5154.37 5110.3)" fill="#f3bd7e"/>
        <path d="M1854.07-2167.09a.4.4,0,0,1-.55.09Z" transform="translate(5154.37 5110.3)" fill="#dbb27d"/>
        <path d="M1842.39-2166.58a.35.35,0,0,1-.54,0Z" transform="translate(5154.37 5110.3)" fill="#d6b492"/>
        <path d="M1816.92-2205.36l.64-.17A.52.52,0,0,1,1816.92-2205.36Z" transform="translate(5154.37 5110.3)" fill="#f3b56f"/>
        <path d="M1784.51-2166a.43.43,0,0,1-.55-.17Z" transform="translate(5154.37 5110.3)" fill="#dbb27d"/>
        <path d="M1839-2166.08a.38.38,0,0,1-.58,0Z" transform="translate(5154.37 5110.3)" fill="#dbb27d"/>
        <path d="M1786.43-2165.57a.36.36,0,0,1-.55-.06Z" transform="translate(5154.37 5110.3)" fill="#dbb27d"/>
        <path d="M1789.34-2165.07a.37.37,0,0,1-.52-.09Z" transform="translate(5154.37 5110.3)" fill="#dbb27d"/>
        <path d="M1823.39-2165.15a.33.33,0,0,1-.52,0Z" transform="translate(5154.37 5110.3)" fill="#dbb27d"/>
        <path d="M1793.74-2164.58a.38.38,0,0,1-.58,0Z" transform="translate(5154.37 5110.3)" fill="#dbb27d"/>
        <path d="M1820-2164.66a.39.39,0,0,1-.54.09Z" transform="translate(5154.37 5110.3)" fill="#dbb27d"/>
        <path d="M1796.68-2164a.47.47,0,0,1-.58-.17Z" transform="translate(5154.37 5110.3)" fill="#dbb27d"/>
        <path d="M1798.61-2163.57a.41.41,0,0,1-.56-.1Z" transform="translate(5154.37 5110.3)" fill="#dbb27d"/>
        <path d="M1805.88-2163.66a.36.36,0,0,1-.56,0Z" transform="translate(5154.37 5110.3)" fill="#dbb27d"/>
        <path d="M2022.58-2173.31a.41.41,0,0,1-.57-.08Z" transform="translate(5154.37 5110.3)" fill="#dbb27d"/>
        <path d="M1598.86-2295.09h1a1.16,1.16,0,0,1-1,.34A1,1,0,0,1,1598.86-2295.09Z" transform="translate(5154.37 5110.3)" fill="#c18f5c"/>
        <path d="M1642.74-2293.19l8.77,0a1.65,1.65,0,0,1-1.11.44c-2.18,0-4.36,0-6.55,0A1.69,1.69,0,0,1,1642.74-2293.19Z" transform="translate(5154.37 5110.3)" fill="#d58330"/>
        <path d="M1613-2296.11l5.26,0a2.21,2.21,0,0,1,1.57.43l-5,0A2.53,2.53,0,0,1,1613-2296.11Z" transform="translate(5154.37 5110.3)" fill="#d58330"/>
        <path d="M1605.74-2296.17a9.53,9.53,0,0,1,5.86,0Z" transform="translate(5154.37 5110.3)" fill="#d58330"/>
        <path d="M1625.21-2295.13l4.29,0a2.17,2.17,0,0,1,1.56.43l-4.29,0A2.19,2.19,0,0,1,1625.21-2295.13Z" transform="translate(5154.37 5110.3)" fill="#d58330"/>
      </g>
    </g>
  </g>
</svg>
